<svg xmlns:inkscape="http://www.inkscape.org/namespaces/inkscape" xmlns:sodipodi="http://sodipodi.sourceforge.net/DTD/sodipodi-0.dtd" xmlns="http://www.w3.org/2000/svg" xmlns:svg="http://www.w3.org/2000/svg" version="1.0" viewBox="0 0 2000.000000 645.000000" preserveAspectRatio="xMidYMid meet" id="svg14" sodipodi:docname="wlug-2000_5.svg" inkscape:version="1.1.2 (0a00cf5339, 2022-02-04)" viewport="0 0 1600px 516px">
  <defs id="defs18">
    <rect x="118.59559" y="692.19995" width="1801.3981" height="132.29613" id="rect174933"/>
    <rect x="1795.8258" y="742.06705" width="266.65823" height="47.573534" id="rect165849"/>
    <rect x="42.571321" y="659.49424" width="1957.1639" height="174.14116" id="rect155461"/>
    <rect x="95.496125" y="706.10701" width="1593.1466" height="123.17308" id="rect2507"/>
    <rect x="297.49485" y="750.94751" width="319.31785" height="50.185931" id="rect1345"/>
    <rect x="274.38422" y="679.96318" width="3.9378979" height="75.02577" id="rect767"/>
  </defs>
  <sodipodi:namedview id="namedview16" pagecolor="#ffffff" bordercolor="#666666" borderopacity="1.0" inkscape:pageshadow="2" inkscape:pageopacity="0.0" inkscape:pagecheckerboard="0" inkscape:document-units="pt" showgrid="false" inkscape:zoom="0.23579016" inkscape:cx="1011.4926" inkscape:cy="513.16815" inkscape:window-width="1918" inkscape:window-height="854" inkscape:window-x="1920" inkscape:window-y="46" inkscape:window-maximized="0" inkscape:current-layer="svg14" showguides="false"/>
  <metadata id="metadata2">
Created by potrace 1.16, written by Peter Selinger 2001-2019
</metadata>
  <g transform="matrix(0.10908398,0,0,-0.13787564,-107.44302,818.38518)" fill="#000000" stroke="none" id="g12">
    <path id="path4" style="stroke-width:0.133333" transform="matrix(7.5,0,0,-7.5,0,6450)" d="M 974.80078,72.400391 C 940.66745,72.267057 911.06693,72.667318 908.93359,73.333984 905.20026,74.533984 892.26667,84.4 890,88 c -4,6.133333 -11.46602,26.40091 -12.66602,34.26758 -0.93333,6 -1.33307,53.06575 -1.0664,139.73242 l 0.39844,130.66602 6.5332,19.0664 c 6.93333,20.26667 8.26719,22.26719 25.86719,41.86719 15.73333,17.46667 34.4,31.46732 50,37.33398 3.73333,1.46667 8.26614,3.60026 10.13281,4.9336 6.4,4.53333 14.66771,8.13294 21.73437,9.59961 3.86667,0.8 14.00041,3.7332 22.40041,6.5332 8.4,2.8 20.6653,5.86745 27.332,6.80078 6.5333,0.8 16.6676,2.93268 22.2676,4.66602 9.8667,2.93333 14.3991,3.73398 43.7324,7.33398 8.8,1.06667 40.9345,1.46537 105.2012,1.33203 111.8667,-0.26666 108.9337,0.13451 122.4004,-14.79883 7.3333,-8.13333 8.2657,-10.26809 9.7324,-22.13476 0.01,-0.0389 0.013,-0.0691 0.02,-0.10352 v -0.008 c 0.021,-0.10429 0.045,-0.2025 0.062,-0.31445 -0.038,0.092 -0.074,0.19631 -0.078,0.25976 -0.023,-0.0871 -0.065,-0.23632 -0.082,-0.30859 -0.071,-0.29627 -0.1056,-0.55209 -0.09,-0.84961 v -0.12891 c -0.017,-0.14064 -0.1665,-0.2341 -0.1172,-0.40625 -0.093,0.31623 -0.032,0.31132 -0.072,-0.0117 0.01,-0.16444 -0.035,-0.34255 0.029,-0.49414 0.034,-0.0794 0.098,-0.13959 0.1601,-0.20117 v -0.31054 c 1e-4,-0.28474 0,-0.57075 0,-0.85547 0,-0.4996 0.011,-0.99924 0,-1.49805 -0.01,-0.15616 0,-0.22113 0.018,-0.27734 -0.018,-0.0344 -0.037,-0.0695 -0.049,-0.10352 -0.1147,-0.32368 -0.1133,-0.55835 -0.1133,-0.88477 v -0.15234 c 9e-4,-0.013 0,-0.0156 0,-0.0273 -0.2314,-0.25399 -0.3768,-0.58574 -0.3203,-0.94141 -0.09,-0.33753 -0.1102,-0.35223 -0.1621,-0.7793 -0.013,-0.0671 0,-0.13552 0,-0.20312 v -0.50391 c -0.01,-0.0176 -0.014,-0.0331 -0.021,-0.0508 -0.015,-0.0718 -0.058,-0.14284 -0.045,-0.21484 0.014,-0.0734 0.052,-0.0759 0.066,-0.13477 10e-5,-0.10021 4e-4,-0.20042 0,-0.30078 v -0.77539 c 0,-0.30356 -0.016,-0.60865 0,-0.91211 -0.1276,0.0318 -0.2534,0.0679 -0.4082,0.0352 -0.08,-0.0169 -0.1645,-0.0423 -0.2285,-0.0937 -0.1266,-0.10172 -0.2195,-0.23836 -0.3301,-0.35742 -0.1328,-0.43327 -0.093,-0.6453 0.061,-1.07813 -0.013,-0.33101 0.1217,-0.63114 0.2266,-0.9375 -0.011,-0.12623 -0.014,-0.25694 -0.014,-0.40039 0,-0.11563 -4e-4,-0.28824 0.016,-0.44531 0,0.0147 -0.042,-0.0755 -0.08,-0.23242 -0.041,-0.0583 -0.078,-0.12147 -0.1094,-0.19727 -0.3522,-0.85595 -0.067,-0.21206 -0.1152,-0.64453 -0.066,-0.59005 -0.119,-0.64333 -0.3125,-1.25781 0,-0.009 -0.01,-0.0181 -0.01,-0.0274 0,-0.005 8e-4,-0.007 -0.01,-0.0137 -0.2999,-0.35873 -0.2083,-0.15162 -0.2988,-0.47266 -0.051,-0.0645 -0.1041,-0.17813 -0.1426,-0.23828 -0.1542,-0.24322 -0.2021,-0.51531 -0.2558,-0.78906 -0.023,-0.0283 -0.041,-0.0601 -0.041,-0.0957 0,-0.0223 0,-0.0442 0,-0.0664 -0.2427,-0.2546 -0.4484,-0.53865 -0.5996,-0.8457 -0.2441,-0.25835 -0.2419,-0.23049 -0.455,-0.59571 -0.028,-0.0478 -0.041,-0.10465 -0.061,-0.15624 0.013,-0.006 0.054,-0.002 0.041,-0.0156 -0.2763,-0.48048 -0.2168,-0.11738 -0.2324,-0.4707 -0.053,-0.0494 -0.1052,-0.10073 -0.1602,-0.14844 -0.3719,-0.30278 -0.8124,-0.79501 -0.7519,-1.31055 -0.089,-0.12891 -0.13,-0.26356 -0.168,-0.41015 v -0.002 c 0.011,0.009 0.012,-0.0302 0,-0.043 -0.01,-0.0102 -0.014,-0.0194 -0.018,-0.0293 0.01,0.0221 0.012,0.0444 0.016,0.0664 -0.01,-0.0309 -0.029,-0.0528 -0.035,-0.0859 -0.042,-0.0622 -0.091,-0.12117 -0.123,-0.18946 -0.051,-0.11008 -0.089,-0.22549 -0.1289,-0.33984 -0.022,-0.0288 -0.043,-0.0807 -0.062,-0.12891 0,-0.007 -0.014,-0.0139 -0.018,-0.0215 -9e-4,-0.002 4e-4,-0.004 0,-0.006 -0.01,-0.0214 -0.022,-0.0417 -0.027,-0.0586 -0.2317,-0.22653 -0.012,0.16905 -0.3339,-0.96485 0,0.0535 -0.014,0.10829 -0.016,0.16211 0.01,0.007 0.014,0.008 0.02,0.0156 0,-0.003 -0.014,-0.0102 -0.022,-0.0137 -0.01,0.0684 0,0.13574 0,0.20313 -0.072,-0.14917 -0.1813,-0.29326 -0.1446,-0.3125 -0.1447,-0.10883 -0.3039,-0.23688 -0.3535,-0.34766 -0.015,-0.0337 -0.017,-0.0707 -0.029,-0.10547 -0.055,0.1004 -0.1189,-0.11519 -0.1621,-0.33007 -0.011,-0.014 -0.023,-0.0262 -0.033,-0.041 -0.1562,-0.23836 -0.2605,-0.57177 -0.2929,-0.89062 -0.015,-0.0133 0,0.001 -0.024,-0.0176 -0.1708,-0.17238 -0.1919,-0.18829 -0.3691,-0.40821 -0.2417,-0.3005 -0.019,-0.066 -0.2949,-0.39257 -0.057,-0.0676 -0.153,-0.11105 -0.1797,-0.19532 -0.018,-0.0566 -0.025,-0.11607 -0.039,-0.17382 -0.1612,-0.12202 -0.3028,-0.26391 -0.4277,-0.42383 -0.1431,-0.20467 -0.204,-0.29453 -0.3711,-0.51367 -0.073,-0.0962 -0.1919,-0.16916 -0.2266,-0.28516 -0.049,-0.16805 -0.068,-0.34304 -0.088,-0.51758 -0.028,-0.002 -0.056,-0.008 -0.084,-0.0137 0.016,0.0218 8e-4,0.034 0.025,0.0703 -0.043,-0.0312 -0.089,-0.0582 -0.1289,-0.0937 -0.1785,-0.0562 -0.3713,-0.17112 -0.5644,-0.36133 -0.083,-0.0822 -0.036,-0.0384 -0.1387,-0.13867 -0.1245,-0.1223 -0.2467,-0.24535 -0.3613,-0.37695 -0.3437,-0.27062 -0.5648,-0.4885 -0.6192,-0.9336 -0.1226,-0.0809 -0.2366,-0.16274 -0.2109,-0.1914 -0.1353,-0.0463 -0.1822,-0.11325 -0.3828,-0.26367 -0.058,-0.0808 -0.072,-0.0998 -0.1035,-0.14258 -0.4009,-0.3775 -0.9237,-0.65427 -1.334,-1.04492 -0.1533,-0.0441 -0.3169,-0.19536 -0.5938,-0.42578 -0.5142,-0.40712 -0.2711,-0.23136 -0.6797,-0.50977 -0.076,-0.0518 -0.1474,-0.10918 -0.2265,-0.15625 -0.2518,-0.14975 -0.5548,-0.25138 -0.6465,-0.58398 0.011,0.003 0.037,0.0151 0.033,0.008 -0.035,-0.0988 -0.2633,-0.21918 -0.3242,-0.30078 -0.016,-0.0185 -0.3406,-0.40197 -0.3145,-0.41797 0.045,-0.0268 0.2024,0.0404 0.1582,0.0117 -0.1262,-0.0819 -0.2776,-0.1188 -0.416,-0.17774 -0.1194,-0.13654 -0.2507,-0.26151 -0.3574,-0.4082 -0.039,-0.0537 -0.048,-0.12448 -0.074,-0.18555 -0.034,-0.0795 -0.066,-0.15939 -0.1055,-0.23633 -0.047,-0.0906 -0.1903,-0.17109 -0.1523,-0.26562 0.012,-0.0307 0.033,-0.0586 0.049,-0.0879 0,-0.004 -0.012,-0.0109 -0.012,-0.0137 -0.083,-0.087 -0.1642,-0.17399 -0.2461,-0.26172 -0.273,-0.29263 -0.5415,-0.58965 -0.8281,-0.86914 -0.017,-0.0289 -0.01,-0.0377 -0.025,-0.0645 -0.022,-0.0217 -0.044,-0.0405 -0.066,-0.0645 -0.063,-0.0674 -0.105,-0.15601 -0.1329,-0.24414 -0.041,-0.13098 -0.064,-0.26705 -0.088,-0.40234 -0.015,-0.0614 -0.07,-0.12686 -0.08,-0.19922 -0.016,-0.0155 -0.033,-0.0312 -0.049,-0.0469 -0.046,0.0738 -0.094,0.072 -0.1386,-0.0645 -0.085,-0.002 -0.1706,-0.007 -0.2559,-0.0137 -0.1481,0.0638 -0.3161,0.046 -0.5879,0.082 -0.5519,-0.27605 -0.661,-0.32759 -0.8476,-0.83594 -0.031,-0.0154 -0.038,-0.0695 -0.043,-0.125 -0.012,-0.035 -0.022,-0.0646 -0.035,-0.10351 -0.017,-0.0489 -0.042,-0.12466 -0.016,-0.16407 v -0.0195 c -0.2697,-0.1556 -0.5552,-0.29418 -0.75,-0.53711 -0.1624,-0.0495 -0.3027,-0.13639 -0.414,-0.26367 -0.03,-0.0344 -0.06,-0.0711 -0.088,-0.10742 -0.092,0.0138 -0.1824,0.0216 -0.2696,-0.008 -0.5433,-0.1625 -0.6514,-0.63775 -0.7168,-1.10938 -2e-4,-0.002 0,-0.004 0,-0.006 -0.2818,-0.27251 -0.5515,-0.55817 -0.832,-0.83203 -0.151,-0.15429 -0.3198,-0.28932 -0.457,-0.45703 -0.041,-0.054 -0.089,-0.10149 -0.1231,-0.16016 0,-0.008 0.016,0.006 0.025,0.01 l 0.418,0.0664 c -0.221,-0.21447 -0.5129,-0.35958 -0.8086,-0.44532 -0.1182,-0.0343 0.1598,0.1861 0.2402,0.2793 -0.1078,-0.12103 -0.025,-0.0395 -0.3242,-0.16406 -0.4627,-0.19259 -0.9141,-0.36118 -1.4258,-0.37891 -0.047,-0.0481 -0.083,-0.11306 -0.1426,-0.14453 -0.022,-0.0117 -0.043,0.0245 -0.064,0.0352 -0.04,0.0184 -0.078,0.0461 -0.1211,0.0527 -0.3191,0.0458 -0.5545,0.0649 -0.8184,-0.13281 -0.1409,-0.0892 -0.042,-0.10004 -0.2949,-0.10938 -0.1544,-0.005 -0.3196,0.0715 -0.4629,0.0137 -0.3782,-0.15257 -0.6802,-0.45924 -1.0527,-0.625 -0.067,-0.0299 0.066,0.13282 0.098,0.19922 0.072,0.0469 0.1477,0.0873 0.2148,0.14063 0.028,0.0221 -0.065,-0.0323 -0.098,-0.0469 -0.1129,-0.0504 -0.226,-0.10017 -0.3398,-0.14843 -0.388,-0.16448 -0.802,-0.30603 -1.1641,-0.52149 -0.028,-0.0168 -0.1485,-0.0885 -0.1484,-0.0898 9e-4,-0.016 0.057,-0.0208 0.041,-0.0234 -0.4252,-0.0744 -0.3645,-0.0731 -0.3965,-0.0859 -0.1178,0.0287 -0.2507,0.0449 -0.4004,0.0449 -0.3312,0 -0.6629,-1e-4 -0.9941,0 -0.1309,9e-5 -0.2618,7.2e-4 -0.3926,0 -0.3972,-7e-5 -0.7943,0.005 -1.1914,0 -0.2428,-0.009 -0.2659,-0.0256 -0.5293,0.0351 -0.2888,-0.0371 -0.2475,-0.008 -0.4863,-0.11328 -0.019,-0.009 -0.045,-0.0144 -0.055,-0.0332 -0.01,-0.0112 0.033,-0.0272 0.023,-0.0312 -2e-4,0 -0.083,-0.004 -0.1543,-0.006 -0.2648,0.0685 -0.5048,0.0224 -0.7461,-0.13672 0,-0.001 0,10e-4 -0.017,0 -0.2441,-0.004 -0.4844,-0.009 -0.7286,-0.002 -0.1403,0.007 -0.781,0.0177 -0.832,0 -0.2215,-0.0769 -0.3426,-0.18721 -0.4258,-0.32618 -0.076,-0.0247 -0.1531,-0.0488 -0.2304,-0.0703 -0.3027,-0.0842 -0.962,-0.23869 -1.2383,-0.30469 -0.1073,-0.0198 -0.2151,-0.0401 -0.3223,-0.0605 -0.018,-0.0393 -0.059,-0.0977 -0.1269,-0.17188 -0.1445,0.01 -0.3499,0.0177 -0.5,0.0274 0.01,0.004 0.016,0.007 0.025,0.0117 -0.023,-0.0109 -0.026,10e-4 -0.047,-0.01 -0.094,0.006 -0.2869,0.008 -0.3828,0.0137 0.023,0.0131 0.039,0.0259 0.061,0.0391 -0.024,-0.0132 -0.087,-0.0262 -0.092,-0.0391 -8.3446,0.51269 -24.7668,0.65234 -59.6836,0.65234 -38.9334,0 -69.734,-0.53398 -75.334,-1.33398 -15.3333,-2.26667 -42.5329,-9.33424 -47.5996,-12.26758 -2.5333,-1.6 -8.801,-5.2 -13.7343,-8 -5.0667,-2.93333 -11.866,-7.99818 -15.1993,-11.46484 -6.2667,-6.4 -20.4003,-27.7349 -22.4003,-33.60156 -0.6667,-1.86667 -1.4672,-63.33269 -1.8672,-136.66602 l -0.7989,-133.33398 -4.4004,-11.33204 c -4.9332,-12.533257 -7.5994,-15.866798 -18.666,-23.466792 l -7.4668,-5.201172 z M 1308.7773,449.57422 c 0.064,0.0143 0.1934,0.0186 0.1465,0.002 -0.023,-0.009 -0.048,-0.007 -0.072,-0.006 -0.025,0.002 -0.05,0.004 -0.074,0.004 z M 949.48438,99.166016 c 7.40611,-0.05838 16.74843,-0.03346 28.64843,0.0332 42.66669,0.133333 45.73369,0.267923 48.40039,2.667974 1.4667,1.33333 4.0001,4.93333 5.4668,8 2.6667,5.6 2.666,7.86692 2.666,128.93359 0,106.26667 0.2667,124.26654 2,130.5332 1.2,4 3.2013,12.93191 4.668,19.86524 1.4667,6.93333 3.7331,14.26758 5.0664,16.26758 1.2,2 4.5325,7.19909 7.1992,11.73242 2.6667,4.4 10.8,13.73411 18,20.80078 10.5333,10.26667 15.7337,14.13385 26.4004,19.86719 7.3333,3.86666 16.666,7.86549 20.666,8.79883 4,0.93333 12.2676,3.73476 18.2676,6.13476 15.7333,6.4 25.7325,7.19922 95.1992,7.19922 61.4667,0 72.8001,0.66693 77.4668,4.93359 3.7333,3.46667 3.2008,10.53399 -1.1992,13.33399 -1.2251,0.83307 -4.8817,1.33108 -11.3164,1.69922 -0.01,0.009 -0.017,0.0183 -0.027,0.0273 -0.098,0.088 -0.1965,0.17567 -0.2949,0.26367 -0.5238,0.2203 -1.0461,0.44267 -1.5703,0.66211 -0.4007,0.1678 -2.7167,-0.31278 -2.7207,-0.0137 -2.3536,10e-4 -4.7071,0.0152 -7.0605,0.0449 -0.7825,0.01 -1.5651,0.0283 -2.3477,0.0274 -0.061,-1.1e-4 -0.1268,0.01 -0.1914,0.0176 -0.6426,0.34741 -1.3696,0.54132 -2.043,0.83203 -0.44,-0.0689 -0.3157,-0.0582 -0.9414,-0.0976 -0.1645,-0.01 -0.5419,0.1381 -0.4941,-0.0195 0.1209,-0.40034 1.2084,-1.03546 0.7949,-0.97266 -0.9761,0.14813 -0.8447,2.49304 -2.5039,1.58399 -0.7024,-0.002 -1.4459,-0.0905 -1.4883,-0.0527 -0.186,0.0379 -0.3267,-0.0661 -0.5,-0.0449 -0.086,0.13025 -0.4588,0.39944 -0.5918,0.55273 -0.377,0.12107 -0.7538,0.2422 -1.1308,0.36328 -1.391,0.44671 -1.4463,0.0199 -1.0215,-0.73046 -0.5818,0.10053 -0.9288,0.21124 -1.125,0.3164 -0.032,-0.0347 -0.053,-0.0657 -0.096,-0.10547 -0.1279,-0.11964 -0.2409,-0.28963 -0.4121,-0.32617 -0.3657,-0.0781 -0.7473,7e-5 -1.1211,0 -2.9361,0.0392 -1.2648,0.005 -4.1153,0.0859 -0.6431,0.0182 -2.5692,0.23801 -3.373,-0.20117 -0.1636,-0.0894 -0.3061,-0.20748 -0.4434,-0.33399 -0.2516,-0.0127 -0.517,-0.0174 -0.7539,0.0137 h -1.3203 c -0.2385,-3e-5 -0.4764,-10e-6 -0.7148,0 -0.4702,-3e-5 -0.94,-1.6e-4 -1.4102,0 -0.4347,1.7e-4 -0.8699,-3.9e-4 -1.3047,0 -0.2976,-10e-6 -0.595,0.004 -0.8926,-0.004 -0.5844,-0.007 -1.1667,0.0425 -1.748,-0.0176 -0.095,-0.0256 -0.1902,-0.0482 -0.2852,-0.0723 -0.8219,0.49658 -0.8569,0.5508 -2.1836,0.51563 -0.1187,-0.0203 -0.1144,-0.0175 -0.2187,-0.0352 -0.6837,0.2485 -1.2113,0.43128 -1.9648,0.35352 -0.4122,-0.0116 -0.8227,0.0273 -1.2344,0.0352 -0.084,0.0212 -0.1677,0.0214 -0.2227,-0.004 -0.073,-10e-4 -0.1459,10e-4 -0.2187,-0.004 -0.01,-0.0404 -0.013,-0.0807 -0.02,-0.12109 -0.9082,0.0918 -1.2859,0.14843 -2.5273,0.31055 -0.6238,0.0815 -1.0987,-0.0326 -1.4551,-0.27539 -0.081,0.003 -0.1064,0.0512 -0.1914,0.0508 -0.4313,-0.003 -0.8637,-0.007 -1.2949,-0.0137 -1.299,-0.005 -2.5962,0.0498 -3.8945,-0.006 -0.1853,-0.007 -0.3244,-0.011 -0.4747,-0.0156 -0.034,0.07 -0.069,0.14027 -0.1054,0.20898 -0.5788,1.07863 -3.637,-2.20694 -3.6602,-0.30859 -1.1702,-0.15995 -1.7119,-0.22163 -2.084,-0.26172 -0.1704,1.35686 -0.275,0.92736 -0.3437,-0.002 -13.133,-4e-5 -26.2657,0 -39.3984,0 -8.6287,0 -17.2548,2.1e-4 -25.8829,0 -1.2279,3.3e-4 -2.4576,0.003 -3.6855,0 -2.2037,-0.012 -4.4076,0.0368 -6.6113,0 -5.2743,-0.0295 -10.551,-0.098 -15.8223,0.11523 -1.4154,-0.16549 -0.8423,-0.0285 -1.5957,-0.5625 -0.4772,-0.0102 -0.9374,-0.0222 -0.5098,0.041 -0.7517,-0.008 -1.4983,-0.0966 -2.2461,-0.16602 -0.6325,0.22334 -1.2418,0.17111 -2.1816,-0.043 -0.099,-0.0226 0.1922,0.0655 0.293,0.0801 -0.6578,0.042 -1.3194,0.0413 -1.9805,0.0352 -0.2675,0.2033 -0.5212,0.35036 -0.6738,0.33203 -0.085,0.0771 -0.221,0.19428 -0.2774,0.24805 0.1011,-0.17974 0.03,-0.34803 -0.9707,-0.008 -0.203,0.0691 0.4445,-0.0528 0.6426,0.0293 0.071,0.0294 -0.099,0.11698 -0.1484,0.17578 -1.1278,0.87744 -1.8934,0.94254 -3.0372,0.5586 -0.5217,0.0997 -1.0652,0.0595 -1.5937,0.0488 -2.0258,-0.60097 -1.0319,-0.231 -1.8496,-0.6582 -0.5868,-0.0908 -0.9236,-0.16271 -1.6524,-0.32617 -0.3462,-0.0738 -1.0384,0.0741 -1.8183,0.0781 -1.8865,-0.14482 -3.7012,-0.39149 -5.5039,-0.90821 -0.063,0.0714 -0.1231,0.1457 -0.1914,0.21289 -0.2491,0.24503 -0.7002,0.10758 -1.0469,0.0645 -0.9601,-0.11984 -1.3084,-0.29095 -1.7969,-0.54102 -0.451,0.0848 -0.7048,-0.065 -1.9219,-0.44141 -0.452,-0.27059 -0.9526,-0.4834 -1.4609,-0.64257 -1.6354,-0.0107 -3.2708,-0.023 -4.9062,-0.0156 0,0.0298 -0.062,0.028 -0.09,0.01 -0.085,0.0177 -0.1922,0.0606 -0.1933,-0.008 0,-0.0488 8e-4,-0.077 0,-0.125 -0.01,0.0449 -0.01,0.0776 -0.014,0.12305 -0.014,0.10825 -0.2213,0.0223 -0.3281,0 -0.4821,-0.10048 -0.9547,-0.24505 -1.4317,-0.36719 -0.2803,-0.13611 -0.4476,-0.20799 -0.5703,-0.25781 0.1032,0.0259 0.235,0.0491 0.3691,0.0449 0.2836,-0.009 0.5703,-0.0586 0.8379,-0.15234 0.1924,-0.0674 0.7208,-0.30627 0.5176,-0.32227 -1.2503,-0.0986 -2.5077,0.0439 -3.7617,0.0664 -1.614,-0.45851 -3.2693,-1.0157 -4.9531,-1.16016 -0.5417,-0.41582 -0.9875,0.12314 -1.4844,0.11914 -0.4158,-0.003 -0.8298,-0.069 -1.2441,-0.10351 -0.056,-0.0471 -0.1056,-0.0828 -0.1602,-0.12696 -0.2226,0.005 -0.45,0.009 -0.6992,0.0117 -2.3749,-0.12849 -0.2489,0.0649 -2.834,-0.39648 -0.2314,-0.0805 -0.4678,-0.1493 -0.6953,-0.24024 -0.2213,-0.0884 -0.4698,-0.19251 -0.7149,-0.29882 -0.1834,0.0272 -0.035,-0.003 -0.3027,0.0332 -0.7386,0.10067 -2.3171,0.53326 -3.2051,0.0137 -0.046,-0.0268 -0.081,-0.0678 -0.125,-0.0976 -0.01,-2e-4 -0.021,0.002 -0.029,0.002 -0.4741,-0.0163 -1.9367,-0.50328 -2.1601,-0.69922 -0.025,0.002 -0.049,0.0107 -0.074,0.0117 -0.8263,0.032 -1.6689,-0.28925 -2.5,-0.61328 -0.1865,1.04844 -0.5204,1.12634 -1.5996,0.93164 -1.0218,0.10645 -1.7306,0.0438 -2.7559,-0.6211 -0.4182,-0.0954 -0.8304,-0.2347 -1.2422,-0.33007 -0.039,-0.009 -0.078,-0.0155 -0.1172,-0.0215 0.01,0.004 0.014,0.007 0.022,0.0117 -0.071,-0.012 -0.2865,-0.043 -0.2148,-0.0352 0.064,0.007 0.1294,0.0138 0.1933,0.0234 -1.9071,-1.00681 -1.8577,-0.78574 -1.9082,-1 -0.8197,-0.0835 -1.3488,-0.33828 -2.1191,-1.04297 -0.089,-0.0809 -0.1563,-0.18304 -0.2266,-0.28125 -0.1387,-3.3e-4 -0.2773,-0.002 -0.416,-0.002 -0.1836,0.0135 -0.4934,0.16833 -0.5137,-0.002 -0.5156,1.1e-4 -0.7714,-0.009 -0.8594,-0.16016 -0.3087,0.004 -0.6171,-0.004 -0.9257,-0.004 -0.5457,1.4e-4 -1.0958,-0.0453 -1.6407,-0.0156 -0.1784,0.01 -0.3492,0.0583 -0.5253,0.0879 -0.3083,0.0103 -1.2623,0.0813 -1.5372,-0.0742 -0.1397,-0.079 -0.257,-0.19285 -0.3867,-0.28711 -0.1556,-0.0259 -0.3281,-0.0574 -0.4258,-0.0625 -1.3797,-0.25657 -3.9353,-0.7798 -5.0527,-1.57617 -0.091,-0.0647 -0.1266,-0.18326 -0.1894,-0.27539 -1.2246,0.084 -2.3466,-0.0206 -3.545,-0.29297 -0.5588,-0.12697 -1.1183,-0.25584 -1.6718,-0.4043 -0.2008,-0.0539 -0.4337,-0.064 -0.5899,-0.20117 -0.065,-0.0569 0.1544,-0.0744 0.2324,-0.11133 -0.5126,0.0176 -1.719,0.0495 -0.2285,-0.36328 -0.01,0.001 -0.012,0.003 -0.018,0.004 l -2.3183,0.37305 c -0.9675,-0.0135 -0.538,-0.80511 -1.4551,-0.71485 -0.9768,-0.28706 0.093,-0.0313 -1.4004,-0.0684 -1.0619,-0.0264 -2.9218,-0.29606 -3.7988,-0.95703 -0.4762,-0.26787 -0.181,-0.14787 -0.9258,-0.24414 -0.059,-0.0268 0.1805,-0.1423 0.1172,-0.1543 -1.6545,-0.31268 -1.9311,0.16702 -3.0059,-1.01953 0.037,-0.23104 -0.1947,-0.21341 -0.4082,-0.23242 -0.732,0.64655 -1.1996,0.79721 -2.6523,0.0332 -0.4635,-0.26369 -0.9167,-0.54685 -1.3711,-0.82617 -0.058,-0.0276 -0.1195,-0.0224 -0.1777,-0.0527 -0.7254,-0.44522 -0.3198,-0.33164 -1.2266,-0.29297 -0.3258,-0.13238 -0.6402,-0.29311 -0.9531,-0.45508 -1.0168,0.008 -2.0928,-0.2658 -2.9004,-0.85937 -0.3912,-0.3062 -1.0171,-0.85172 -1.5352,-1.23438 -0.5749,0.16739 -1.3257,0.34302 -1.4277,-0.0762 -0.153,-0.0658 -0.3109,-0.12113 -0.459,-0.19727 -0.052,-0.0265 -0.1822,-0.21208 -0.2148,-0.21875 -0.2029,-0.0403 -0.4127,-2.5e-4 -0.6192,-0.0137 -0.075,-0.005 -0.2459,0.025 -0.2461,-0.0234 -0.1188,0.0361 -0.2438,0.0703 -0.3613,0.0918 -0.2487,0.0455 -0.505,0.0573 -0.7578,0.0547 -0.6111,-0.006 -1.3306,-0.10313 -1.9024,-0.36914 -0.5085,0.0449 -1.004,-0.0759 -1.5625,-0.37305 -0.274,-0.14581 -0.4454,-0.25378 -0.5722,-0.35547 -0.4645,0.003 -0.93,-0.0302 -1.3887,0.008 -0.8668,0.0707 -1.311,0.33461 -2.2754,0.23047 -0.4047,-0.0437 -0.7717,-0.25703 -1.1582,-0.38476 -0.1834,-0.14141 -0.3666,-0.28328 -0.5508,-0.42383 -0.013,0.005 -0.026,0.009 -0.039,0.0137 -1.9062,-0.37543 -2.6299,-0.763 -4.3262,-1.89844 -0.23,-0.15392 -0.1783,-0.52002 -0.4824,-0.58789 -0.1988,-0.0582 -0.3892,-0.16084 -0.5957,-0.17578 -0.3566,-0.0259 -0.7132,0.0384 -1.0703,0.0547 -1.2322,0.0562 -2.4978,0.16167 -3.6348,-0.41797 -0.037,0.0149 -0.066,0.0447 -0.1055,0.0547 -1.5469,0.38948 -2.79068,-0.36275 -3.58982,-1.52539 -0.0815,-0.12235 -0.11294,-0.30079 -0.24414,-0.36719 -0.32923,-0.16663 -0.71748,-0.17693 -1.06641,-0.29687 -0.54945,-0.18895 -1.09466,-0.39598 -1.62695,-0.62891 -0.1542,-0.0675 -0.57208,-0.18633 -0.42578,-0.26953 0.3917,-0.2228 1.75175,-0.0904 1.32812,-0.24414 -0.63418,-0.23062 -1.3488,-0.005 -2.02344,-0.008 -0.34334,-0.24224 -0.70119,-0.46404 -1.02929,-0.72656 -0.0119,-0.01 -0.43303,-0.52473 -0.45703,-0.55273 -0.34111,-0.39831 -0.92331,-0.59507 -1.30078,-0.93164 -0.25951,-0.28348 -0.52122,-0.56481 -0.7793,-0.84961 -0.24417,-0.0885 -0.48826,-0.1771 -0.73242,-0.26563 -3.31347,-2.06549 -1.64319,-1.22173 -1.25,-0.68945 0.22025,0.29816 -1.08578,-0.9873 -0.87891,-0.67969 -1.63443,-0.27886 -3.16367,-0.61926 -4.68945,-1.27148 -0.10634,-0.0455 -0.33164,-0.0691 -0.31641,-0.15821 -0.13358,0.005 -0.32379,0.0282 -0.36133,0.01 -0.15703,-0.0206 -1.08262,-0.13185 -1.09179,-0.20898 -0.18804,0.15642 -0.57068,-0.10317 -1.96485,-0.78125 -2.37218,-1.05348 -4.86918,-1.81975 -7.08008,-3.20118 -4e-4,0.01 0.007,0.0242 0,0.0215 -0.0673,-0.028 -0.11946,-0.082 -0.17968,-0.12305 0.0582,0.0375 0.12105,0.0649 0.17968,0.10156 5.1e-4,-0.0127 0.008,-0.0229 0,-0.0273 -0.19065,-0.10251 -0.40343,-0.16286 -0.59179,-0.26953 -0.71535,-0.40513 -1.17171,-0.71564 -1.68164,-1.30859 -0.002,-0.003 -0.0126,-0.0139 -0.0156,-0.0176 -0.19688,-0.0121 -0.31806,-0.0189 -0.5625,-0.0332 -0.35504,-0.0208 -0.54831,-0.45294 -0.80859,-0.69531 -0.005,-0.005 -0.0139,-0.0161 -0.0195,-0.0215 -0.16052,0.0297 -0.32019,0.0682 -0.48047,0.0918 -0.31727,0.0466 -0.43838,-0.47408 -0.61133,-0.74414 -0.2817,-0.43987 -0.54141,-0.96251 -0.78711,-1.48828 -1.32694,-0.74831 -2.87895,-1.5191 -3.70703,-2.18945 -2.93333,-2.26667 -8.5332,-5.86524 -12.5332,-7.86524 -6.93334,-3.6 -13.46641,-9.6013 -27.06641,-24.66796 -7.33333,-8.4 -7.86706,-9.19935 -12.40039,-24.66602 L 907.4668,387.33398 906.93359,264 c -0.26666,-78.93333 2.6e-4,-126.93346 0.9336,-133.4668 1.73333,-13.33333 6.13372,-24.66679 10.40039,-27.46679 4.2,-2.80001 8.99843,-3.725248 31.2168,-3.900394 z M 1131.4473,502.02539 c 0.1147,-0.10408 0.1964,-0.1829 0.373,-0.33594 -0.1725,-0.002 -0.3454,-0.002 -0.5176,-0.004 -0.03,0.23008 0.032,0.32629 0.1446,0.33984 z m 0.373,-0.33594 c 0.1003,10e-4 0.2005,0.003 0.3008,0.004 0.1747,-0.13282 0.3387,-0.29284 0.5019,-0.44727 -0.064,-0.0221 -0.1278,-0.0447 -0.1914,-0.0684 -0.1975,0.16622 -0.4633,0.38358 -0.6113,0.51172 z m 141.1309,0.72071 c 0.5293,-0.0915 1.2565,-0.17215 2.2285,-0.23243 -0.6393,0.0122 -1.2753,0.10745 -1.9414,-0.17578 -0.01,6.5e-4 -0.022,-6e-4 -0.029,0 -0.095,0.14317 -0.1857,0.28079 -0.2578,0.40821 z m 67.1816,-293.07618 -10.7988,3.4668 c -14.9333,4.66667 -18.5332,8.26641 -24.5332,25.06641 -2.6667,7.2 -5.4681,16.7987 -6.1348,21.33203 -0.9333,5.2 -1.3331,31.8681 -1.0664,74.13476 l 0.4004,66 4.9336,12 c 2.6667,6.53334 5.1991,14.26693 5.7324,16.9336 0.5333,2.66666 2.4014,6.79922 4.1348,9.19922 0.957,1.30799 0.9484,1.91283 1.4512,2.85547 0.1294,0.0609 0.2619,0.15155 0.3945,0.28125 0.098,0.096 0.1948,0.19306 0.293,0.28906 0.1213,0.18748 0.2609,0.36495 0.3652,0.5625 0.045,0.0853 0.053,0.18441 0.078,0.27734 0.072,0.2611 0.1391,0.51692 0.1055,0.75391 0.083,0.1901 0.1631,0.38178 0.2578,0.5664 0.019,0.0318 0.1909,0.31469 0.2129,0.34375 0.026,0.0349 0.068,0.0584 0.094,0.0937 0.01,0.008 -0.01,0.022 0,0.0274 0.092,0.0763 0.2346,0.0811 0.2989,0.19922 0.053,0.0246 0.1082,0.0475 0.1582,0.0781 0.285,0.17508 0.2609,0.1642 0.4375,0.3418 0.048,0.0481 0.095,0.0965 0.1425,0.14453 0.1316,0.13419 0.2746,0.25644 0.4024,0.39453 0.062,0.0661 0.1542,0.16945 0.2363,0.25977 0.2523,0.1158 0.4692,0.21391 0.7754,0.49804 -0.026,-0.006 -0.099,-0.0348 -0.078,-0.0176 0.05,0.0409 0.1147,0.0555 0.168,0.0918 0.2047,0.13974 0.3605,0.35337 0.455,0.58008 -0.013,-0.009 -0.026,-0.0183 -0.039,-0.0273 0.1669,0.13635 0.3052,0.30525 0.4023,0.49804 -0.1434,-0.0202 0.067,-5.2e-4 0.1231,0.15235 0.086,0.23284 0.063,0.50106 0.1621,0.72851 0.045,0.10227 0.023,-0.22513 0.01,-0.33593 0,-0.0208 -0.012,-0.0385 -0.022,-0.0566 0.051,0.0301 0.1243,0.0845 0.1368,0.16796 0.01,0.037 0,0.0758 0,0.11328 0.017,4.3e-4 0.07,0.10996 0.1015,0.1504 0.056,0.0817 0.1166,0.15947 0.168,0.24414 0.02,0.0337 6e-4,0.10264 0.029,0.1289 0.083,0.0659 0.1888,0.0959 0.2773,0.1543 0.4223,0.27871 0.3542,0.23809 0.6524,0.55469 0.051,0.12192 0.098,0.24433 0.1465,0.36718 0.041,0.0408 0.092,0.1059 0.1211,0.13868 0.095,0.10725 0.1784,0.22371 0.2617,0.33984 0.01,0.0147 0.014,0.034 0.022,0.0508 0.1687,0.32188 0.375,0.63538 0.5937,0.92188 0.049,0.0586 0.2433,0.32359 0.2891,0.35547 0.048,0.0336 0.1051,0.0507 0.1582,0.0762 0.2774,0.16988 0.524,0.34274 0.7187,0.61133 0.076,0.0923 0.1871,0.16644 0.2207,0.28124 0,0.0147 -0.022,0.0312 -0.016,0.0449 0.01,0.0173 0.061,0.0145 0.049,0.0293 -0.022,0.0279 -0.1274,0.0312 -0.1,0.0352 0.069,0.009 0.1383,-0.0154 0.2071,-0.0234 0.2334,0.21687 1.1014,1.31081 0.7421,0.42578 -0.078,-0.19266 -0.4149,-0.22185 0.051,-0.0801 0.182,0.11977 0.355,0.25617 0.5469,0.35937 0.048,0.0257 -0.05,-0.0614 -0.1035,-0.11328 -0.024,-0.0137 -0.049,-0.027 -0.072,-0.041 -0.015,-0.009 0.035,0.0135 0.051,0.0195 0,0.005 0.014,0.0147 0.022,0.0215 0.1752,0.0998 0.3545,0.1945 0.5078,0.32812 0.052,0.0387 0.1022,0.0788 0.1562,0.11524 0.02,0.0132 0.082,0.0171 0.064,0.0332 -0.03,0.0281 -0.1613,0.0148 -0.1211,0.0215 0.088,0.0147 0.1823,-0.0243 0.2676,0.004 0.4198,0.1295 0.3933,0.13063 0.5859,0.34961 0,0.0153 0.01,0.0314 0.01,0.0469 0.019,0.0104 -3e-4,0.008 0.1484,0.0566 0.4623,0.33404 0.7007,0.57709 0.4356,0.26562 -0.045,-0.0527 0.1032,0.0928 0.1582,0.13477 0.088,0.067 0.1783,0.13011 0.2676,0.19531 0.1203,0.0938 0.2409,0.18738 0.3613,0.28125 0.1945,0.19467 0.4061,0.37416 0.5781,0.58984 0.021,0.0271 0.111,0.12834 0.1328,0.15821 0.011,0.0148 0.014,0.0401 0.025,0.0508 0.059,0.0383 0.1262,0.0584 0.1895,0.0879 0.01,0.007 0.02,0.013 0.029,0.0195 0.2376,-0.0147 0.4505,0.0373 0.6777,0.22656 0.012,0.0192 -0.084,-0.0317 -0.066,-0.0176 0.075,0.0598 0.1927,0.0533 0.2519,0.14063 0.2495,0.20728 0.2234,0.22209 0.3809,0.50195 0.061,0.17892 0.1412,0.34848 0.2168,0.51758 0.03,0.0299 0.06,0.06 0.09,0.0898 0.1823,0.18228 0.3642,0.36495 0.5469,0.54688 0.1405,0.13792 0.2796,0.2761 0.4141,0.41992 -0.069,-0.0395 -0.081,-0.064 0.076,0.0625 0.201,0.16172 0.37,0.3581 0.5351,0.55469 0.078,0.10921 0.1497,0.22226 0.2324,0.32812 0.043,0.0551 0.098,0.10189 0.1367,0.16016 0.059,0.0884 0.1057,0.18308 0.1543,0.27734 0,0.008 0.01,0.0215 0,0.0254 0.305,0.24913 0.5645,0.54461 0.7168,0.91602 0.025,0.0592 0.066,0.11398 0.074,0.17774 0,0.0168 5e-4,0.0339 0,0.0508 0.1054,0.11059 0.1107,0.11263 0.2265,0.27343 0.032,0.0458 0.051,0.10337 0.084,0.14844 0.061,0.0816 0.1534,0.1426 0.1934,0.23633 0.059,0.13931 0.085,0.29078 0.1172,0.43945 0,-0.001 0.014,0.019 0.012,0.0156 0.2512,0.27212 0.1539,0.14474 0.4043,0.5625 0.01,0.0137 -0.016,-0.0291 -0.029,-0.0371 -0.013,-0.008 -0.06,-0.0162 -0.047,-0.008 0.09,0.11408 0.2514,0.15942 0.3301,0.28515 0.2193,0.19986 0.5187,0.43996 0.5801,0.74805 0.011,0.0536 0.015,0.10773 0.021,0.16211 0.1162,0.1173 0.24,0.22726 0.3575,0.34375 0.2309,0.18814 0.3934,0.39414 0.5761,0.63086 0.099,0.12856 0.1977,0.25503 0.295,0.38476 0.056,0.0734 0.1426,0.13346 0.164,0.22266 0.027,0.11143 0.047,0.22611 0.061,0.33984 0.2923,0.17849 0.4062,0.3308 0.5058,0.63282 0.045,0.009 0.088,0.0181 0.1289,0.0371 0.5164,0.23942 0.6261,0.33947 0.5703,0.29688 -0.019,-0.0204 -0.095,-0.10203 0.1836,0.10547 0.076,0.0565 0.1458,0.1209 0.2168,0.18359 0.1252,0.0399 0.2726,0.0849 0.3828,0.14453 0.3687,0.20015 0.6569,0.51094 0.9454,0.8086 0.011,0.0138 0.3209,0.37488 0.3476,0.46875 0,0.0175 -0.072,0.004 -0.059,0.0195 0.048,0.087 0.3597,0.20039 0.3731,0.32812 0.01,0.0115 0.1739,0.23547 0.1953,0.32227 0,0.009 -0.014,0.0129 -0.014,0.0195 0.025,0.0452 0.1293,0.1159 0.1426,0.1543 0.5073,0.44201 0.7983,0.767 0.8476,1.49609 0,0.0575 -0.011,0.11442 -0.016,0.17188 0.2596,0.19122 0.3248,0.2592 0.5703,0.51953 0.065,0.0688 0.1282,0.1313 0.168,0.18554 0.058,0.01 0.1177,0.0224 0.1758,0.0312 0.2752,0.20154 0.5911,0.3619 0.8066,0.63477 0.1106,0.11728 0.1685,0.17748 0.1426,0.19922 0.07,0.0233 0.1388,0.0475 0.209,0.0684 0.2939,0.29113 0.5885,0.58056 0.875,0.8789 -0.036,-0.0191 -0.1381,-0.0845 -0.1074,-0.0566 0.046,0.042 0.1075,0.0624 0.1582,0.0996 0.3624,0.27026 0.6739,0.62067 0.9375,0.98438 0.078,0.23634 0.1379,0.39021 0.1816,0.52344 0.2231,0.18381 0.5058,0.41701 0.5254,0.51562 0.016,0.0809 0.017,0.16361 0.018,0.24609 v 0.002 c 0,0.002 0,0.003 0.016,0.006 0.08,0.0541 0.1721,0.0917 0.2441,0.15625 0.2386,0.2146 0.3286,0.27712 0.3789,0.32812 0.145,0.0383 0.2902,0.0748 0.4258,0.14063 0.2519,0.15144 0.4923,0.3061 0.6758,0.54297 0.1019,0.13149 0.1818,0.28189 0.2871,0.41015 0.04,0.0493 -0.067,-0.11325 -0.096,-0.16992 -0.1151,-0.1114 -0.034,-0.0279 0.062,0.0391 0.1695,0.11683 0.3014,0.22595 0.4414,0.34571 0.012,-0.001 0.023,-0.003 0.035,-0.004 0.2821,-0.0184 0.6241,0.15771 0.9004,0.60742 0.1471,0.23939 0.1976,0.3192 0.2539,0.41016 0.2067,0.20505 0.4143,0.40801 0.6152,0.61914 0.073,0.0788 0.2138,0.18762 0.3145,0.30859 0.1459,0.0627 0.2796,0.16589 0.4101,0.24805 0.02,0.0125 0.068,0.0416 0.082,0.0508 -0.055,-0.0211 -0.1063,-0.0535 -0.1582,-0.0801 -0.041,6.1e-4 -0.1145,-0.004 -0.1777,-0.008 0.012,0.0188 0.014,0.0387 0.022,0.0606 0.1941,0.0819 0.321,0.12396 0.4023,0.14062 0,-0.002 0,-0.004 0.02,-0.006 0.042,-0.009 0.084,-4.3e-4 0.125,0.0137 0.041,-0.01 0.043,-0.0217 0.1054,0.041 0.025,0.0107 0.045,0.0205 0.07,0.0273 0.018,0.007 0.042,0.0158 0.061,0.0234 -0.01,-0.001 -0.024,-0.002 -0.016,0.002 0.08,0.0348 0.2231,0.0718 0.3613,0.12891 0,4.6e-4 0.018,5e-4 0.018,0.002 0.094,0.0175 0.1897,0.0557 0.2832,0.0703 0.6938,0.10809 1.0902,0.30841 1.6465,0.70312 0.1591,0.14603 0.5405,0.51022 0.5156,0.8125 2.5107,0.18857 5.1688,1.01515 7.9844,3.5625 2.8,2.53333 7.7292,5.4655 11.0625,6.79883 3.3333,1.33333 8.8027,4.13424 12.2695,6.26758 3.4665,2.13333 11.868,5.33398 18.668,7.33398 6.8,1.86667 16.2625,5.06589 21.0625,7.19922 4.8,2.13333 14.4026,4.8 21.3359,6 6.9333,1.06667 17.6016,3.86667 23.6016,6 6,2.13333 16.2621,4.53398 22.6621,5.33398 6.4,0.8 12.6697,1.73334 13.7363,2 1.2002,0.4 15.1968,1.2 31.3301,2 16.1333,0.66667 31.7367,1.86602 34.6699,2.66602 8.2667,2 64.4003,1.60065 80,-0.66602 7.3334,-1.06666 20.8001,-2 30,-2 27.2002,0 53.9972,-3.20052 65.7305,-7.86718 5.4667,-2.13334 14.9331,-4.6668 21.0664,-5.4668 6.1333,-0.8 14.8033,-3.06693 19.2031,-4.93359 4.4004,-1.73334 12.5304,-4.79987 18.2637,-6.53321 5.6,-1.86666 12.5379,-4.93411 15.3379,-6.80078 2.8,-1.86666 7.8652,-5.19922 11.332,-7.19922 13.4665,-8 32.0013,-24.93411 44.668,-40.80078 4.5333,-5.73333 13.3282,-23.86653 16.7949,-34.5332 1.2,-3.6 2.8037,-11.19831 3.6035,-16.93164 1.4667,-11.46667 1.6014,-80.66693 0.1348,-130.9336 -1.0667,-36.4 -1.071,-36.66744 -12.4043,-48.80078 -6.6667,-7.06666 -7.7307,-7.60039 -18.6641,-10.40039 -10.9333,-2.66666 -14.9358,-2.79883 -65.8691,-2.79883 -50.4,0 -54.9302,0.13269 -63.1973,2.66602 -15.0667,4.53333 -21.6028,10.5332 -26.2695,24.5332 -2,6 -2.3997,15.60078 -3.0664,76.80078 l -0.8008,70 -3.7285,10.39844 c -3.4667,9.6 -4.5376,11.06771 -14.4043,19.73438 -8,7.06666 -14.6669,11.33398 -26.9336,17.33398 -15.4667,7.6 -16.6668,7.9987 -31.4668,9.33203 -17.2,1.73334 -58.6667,0.79987 -68,-1.46679 -11.4667,-2.8 -37.862,-14.93191 -47.1953,-21.86524 -6.8,-5.06667 -10.9332,-9.46667 -16.5332,-18 -4,-6.13333 -8.135,-13.46667 -9.0684,-16 -1.3333,-3.6 -1.7358,-18.13346 -1.8691,-55.4668 -0.1333,-27.86666 -0.664,-58.00026 -1.1973,-66.93359 -0.8,-15.2 -1.2,-16.79948 -6,-26.13281 -7.0667,-14 -11.0666,-17.33347 -25.4668,-21.4668 -11.8667,-3.46667 -12.0028,-3.4668 -64.2695,-3.4668 z m 53.916,31.94922 c 24.4831,0.0165 48.817,0.64935 51.6836,1.91602 2.4,0.93333 5.4669,3.06745 6.9336,4.80078 2.5333,2.8 2.6673,5.33255 3.334,65.19922 l 0.666,62.13476 5.0664,15.59961 c 2.8,8.66667 5.6009,16.00039 6.2676,16.40039 0.6667,0.4 3.5999,4.79909 6.5332,9.73243 3.4667,6 8.1328,11.33424 14.1328,16.26757 4.9333,4 12.0011,9.86641 15.7344,13.06641 3.7333,3.06667 9.1989,6.26693 12.2656,6.93359 2.9333,0.66667 9.6013,3.46667 14.668,6 9.3333,4.8 16.532,6.4 35.332,8 5.4667,0.53334 13.1998,2.00013 17.0664,3.4668 9.6,3.46667 29.6018,3.46667 38.5352,0 3.6,-1.33333 11.9992,-2.80065 19.1992,-3.33398 16.5333,-1.2 26.0004,-3.46719 32.4004,-7.86719 2.8,-2 7.4661,-4.26693 10.1328,-4.93359 2.8,-0.8 7.9996,-3.46667 11.5996,-6 3.4667,-2.53334 8.5345,-6.13191 11.2012,-7.86524 6.9333,-4.66667 20.6665,-21.20169 22.5332,-27.06836 0.9333,-2.8 3.8665,-9.33177 6.5332,-14.39844 L 1740.666,390 l 0.668,-70 c 0.5333,-51.33333 1.0656,-70.80078 2.2656,-72.80078 3.3333,-5.86667 6.2671,-6.13294 64.4004,-5.59961 l 54.9336,0.40039 3.1992,3.73242 3.2012,3.73438 v 72.40039 c 0,79.6 0.5331,74.53242 -8.9336,95.73242 -5.4667,12.53333 -17.2011,28.00065 -23.7344,31.33398 -2.1333,1.2 -6.9327,4.39974 -10.666,7.06641 -13.7333,10.26667 -26.6667,17.06667 -38,20 -6,1.6 -15.2004,4.93346 -20.4004,7.4668 -7.8667,4 -11.8661,5.06744 -26.1328,6.80078 -9.2,1.06666 -24.0008,3.73333 -32.8008,6 -13.8667,3.33333 -20,4.13203 -46,5.33203 -16.6667,0.66667 -50.7993,0.9332 -76.666,0.5332 -48.2667,-0.8 -61.1999,-2.13294 -78.5332,-7.59961 -4.4,-1.33333 -10.4007,-2.5332 -13.334,-2.5332 -3.0667,0 -12.6668,-0.93385 -21.4668,-1.86719 -12.8,-1.6 -18,-2.9332 -26,-6.5332 -5.4667,-2.53333 -12.9327,-5.33281 -16.666,-6.13281 -18.9333,-4.26667 -23.8659,-5.73386 -27.1992,-7.86719 -1.8667,-1.46667 -7.4671,-4.00052 -12.4004,-5.86719 -4.9333,-1.86666 -11.468,-5.59948 -14.668,-8.13281 -3.2,-2.53333 -7.3325,-5.46706 -9.1992,-6.40039 -4.6667,-2.4 -13.3341,-10.6668 -22.8008,-21.4668 -6.5333,-7.33333 -7.8657,-9.99857 -9.7324,-17.86523 -1.2,-5.06667 -2.9333,-11.7336 -4,-14.9336 -1.6,-4.66666 -2,-16.26744 -2,-62.80078 0,-74.53333 1.6001,-84.93307 13.4668,-89.0664 3.4666,-1.2 28.099,-1.79974 52.582,-1.78321 z m -77.7676,202.39063 c -0.01,-0.003 0,0.013 0.01,0.0156 0.014,0.008 0.029,0.0146 0.043,0.0215 -0.017,-0.0131 -0.034,-0.0268 -0.053,-0.0371 z m -0.8359,2.22656 v 0.002 c 0.018,0.007 0.042,0.01 0.068,0.0117 -0.027,-0.006 -0.053,-0.0116 -0.064,-0.0137 z m 0.025,0.18359 c 0.1026,0.0548 0.1816,0.10563 0.014,0 -0.01,-4.5e-4 -0.01,4.3e-4 -0.014,0 z m 4.3516,1.27149 c -0.01,0.25446 -0.1,0.51705 -0.018,0.75586 0.065,0.18865 0.1204,-0.38455 0.123,-0.58399 9e-4,-0.0667 -0.085,-0.11033 -0.1054,-0.17187 z m -7.3496,0.2832 c 0.036,0.0285 0.077,0.0589 0.098,0.0781 0.01,-0.004 0.032,-0.005 0.025,-0.0117 -0.032,-0.027 -0.075,-0.0479 -0.123,-0.0664 z m -2.1895,0.38867 c -0.046,0.0255 -0.091,0.0506 -0.1387,0.0723 -0.045,0.02 0.089,-0.0428 0.1328,-0.0644 0,-0.003 -2e-4,-0.005 0.01,-0.008 z m -0.9844,0.0762 c -0.1621,0.0167 -0.3232,0.0331 -0.4453,0.0527 0.1825,0.0177 0.3617,0.0552 0.5371,0.13086 0,10e-4 0.01,0.003 0.01,0.004 0.016,-0.002 0.019,-0.002 0.037,-0.004 -0.025,-0.0222 -0.049,-0.0449 -0.072,-0.0684 -0.031,-0.0316 -0.047,-0.0746 -0.066,-0.11523 z m -1.4101,0.24414 c 0.054,0.11325 0.091,0.23718 0.1425,0.35156 -0.034,-0.16587 -0.04,-0.26459 -0.1425,-0.35156 z m 13.3593,0.6875 c 0.037,0.0885 0.073,0.17793 0.1153,0.26367 0.029,0.0588 -0.01,-0.13603 -0.039,-0.19336 -0.016,-0.0291 -0.047,-0.049 -0.076,-0.0703 z m -1.3164,0.0996 c 0.01,0.0118 -10e-4,0.0264 0,0.0391 0,-0.0188 -10e-4,-0.051 0.01,-0.0391 z m -0.016,0.0703 c 9e-4,0.003 -9e-4,0.005 0,0.008 0,-0.003 0.01,-0.005 0.01,-0.008 z m 0,0.008 c 0,0.002 10e-5,0.004 0,0.006 0,0.0217 0.01,0.0432 0,0.0645 0,0.003 0.01,0.0105 0.014,0.0137 0.01,-0.0288 6e-4,-0.0564 -0.01,-0.084 z m -3.2285,0.36523 c -0.025,-5.6e-4 -0.05,0.008 -0.076,0.0156 0.026,0.0274 0.054,0.0527 0.08,0.0801 0,-0.0273 -0.011,-0.0541 -0.01,-0.082 0,-0.0136 0.034,0.006 0.041,-0.002 v -0.006 c -0.01,-0.004 -0.021,-0.006 -0.031,-0.006 z m 3.5059,0.41797 c -0.02,0.002 -0.051,0.006 -0.062,0.0117 -0.029,0.0815 -0.07,0.16167 -0.1172,0.23828 0.1517,0.0532 0.3187,0.0561 0.4648,0.12305 -0.048,-0.0812 -0.1091,-0.15393 -0.1543,-0.23633 -0.2039,-0.44856 -0.015,-0.12543 -0.062,-0.10156 -0.016,0.008 -0.036,-0.0144 -0.045,-0.0293 v -0.006 c -0.01,3.3e-4 -0.015,-2.7e-4 -0.021,0 z m 3.0312,3.0293 c 3e-4,0.01 6e-4,0.0196 0,0.0293 0.033,0.009 0.062,0.0245 0.094,0.0371 -0.038,-0.0104 -0.058,-0.0519 -0.094,-0.0664 z m 3.207,0.27734 c 0.041,0.18826 0.059,0.38572 0.1485,0.55469 0.073,0.13654 -0.025,-0.3124 -0.074,-0.45898 -0.014,-0.0401 -0.044,-0.0706 -0.074,-0.0957 z m -3.2324,0.10938 c 0.01,10e-4 0,0.003 0.01,0.004 0,-10e-4 0,-0.003 0,-0.004 z m 0.01,0.004 c 0,0.0473 -0.044,0.17412 -0.021,0.13476 0.024,-0.0389 0.011,-0.0921 0.025,-0.13281 0,-3.8e-4 0,-10e-4 0,-0.002 z m 0.1387,0.10937 c 0,0.004 -0.062,-10e-4 -0.047,0.004 0.029,0.009 0.022,0.002 0.049,0.01 -5e-4,-0.005 0,-0.009 0,-0.0137 z M 1325,455.4082 c -0.1732,0.0564 -0.3974,0.10981 -0.4199,0.16602 -0.064,0.10286 -0.1233,0.23122 -0.061,0.19531 0.2779,-0.14769 0.3967,-0.24947 0.4942,-0.33984 0,-0.007 -0.012,-0.0144 -0.014,-0.0215 z m -0.4941,0.38086 c -0.1062,0.01 -0.2241,0.0205 -0.3536,0.0352 0.01,0.005 0.02,0.008 0.033,0.008 0.108,-0.002 0.2155,-0.0187 0.3204,-0.043 z m 3.7148,0.76367 c -0.1006,9.6e-4 -0.2046,0.003 -0.3105,0.004 0,0.0173 0.011,0.0335 0.016,0.0508 0.2526,0.0565 0.3864,0.0692 0.4824,0.0899 -0.048,-0.0482 -0.096,-0.0963 -0.1445,-0.14454 -0.014,1e-5 -0.029,-1.3e-4 -0.043,0 z m 1.0703,1.26563 c 0.01,0.005 0.01,0.0116 0.016,0.0176 0,-0.006 -0.014,-0.0116 -0.014,-0.0176 z m -1.4941,0.23047 c 0.01,0.0589 0.02,0.11758 0.031,0.16992 0.019,-0.0244 0.031,-0.0513 0.049,-0.0762 -0.024,-0.0281 -0.048,-0.0564 -0.076,-0.0937 z m -0.3321,0.10547 c -0.029,0.0232 -0.063,0.0567 -0.088,0.0723 0.04,0.16599 0.092,0.32973 0.1308,0.4961 0.073,-0.10265 0.1072,-0.21075 0.1953,-0.30664 -0.013,-0.007 -0.01,-0.006 -0.023,-0.0137 -0.081,-0.0788 -0.1497,-0.16224 -0.2149,-0.24804 z m 3.5489,1.23242 c 0,0.0226 0.01,0.0456 0.016,0.0586 0,0.007 0.021,0.003 0.023,-0.004 -0.017,-0.0213 -0.024,-0.0358 -0.039,-0.0547 z m -1.3907,0.11523 c 0.01,0.008 0.012,0.0153 0.018,0.0234 3e-4,-10e-4 -2e-4,-0.003 0,-0.004 v -0.0137 c -0.01,-0.003 -0.013,-0.004 -0.018,-0.006 z m -361.998,0.31055 c 0.0121,0.005 0.004,0.0694 0.0215,0.0527 0.008,-0.008 0.0152,-0.0174 0.0234,-0.0254 -0.0171,-0.009 -0.0279,-0.0182 -0.0449,-0.0273 z m 363.7285,0.0801 c -0.01,0.0412 -0.02,0.0819 -0.027,0.12304 -0.013,0.0207 -0.023,0.0445 -0.033,0.0684 0.077,0.086 0.1368,0.19128 0.2343,0.25196 0.058,0.0357 -0.1217,-0.11112 -0.1015,-0.17578 0.015,-0.0479 0.096,0.031 0.1426,0.0488 0.02,0.008 0.04,0.0172 0.06,0.0254 -0.064,-0.0772 -0.1052,-0.17605 -0.2207,-0.25196 -0.083,-0.11362 -0.01,-0.0309 -0.055,-0.0898 z m 0.5449,0.25 c -0.01,-0.0635 -0.021,0.0914 -0.031,0.18945 0,0.002 0.01,0.002 0.01,0.004 0.011,-0.0663 0.031,-0.10501 0.021,-0.19336 z m 1.2989,0.0781 c -4e-4,0.15359 -0.01,0.30776 0.027,0.45703 0.026,0.11874 0.059,-0.24714 0.022,-0.36328 -0.011,-0.0329 -0.03,-0.0627 -0.049,-0.0937 z m -363.0391,0.95118 c -0.31014,0.10014 -0.61923,0.20453 -0.9375,0.27539 0.29128,0.1028 0.58469,0.19929 0.87696,0.29882 0.11322,-0.14807 0.21048,-0.31286 0.31054,-0.47461 -0.0834,-0.0384 -0.16696,-0.061 -0.25,-0.0996 z m 361.1523,0.47851 c 0.023,0.0305 0.055,0.0583 0.068,0.0898 0.01,0.0125 -0.012,-0.0257 -0.018,-0.0391 0.015,-0.005 0.055,-0.007 0.043,-0.0176 -0.019,-0.019 -0.06,-0.0254 -0.094,-0.0332 z m -0.084,0.002 c -0.1623,0.087 -0.3338,0.16142 -0.4746,0.2793 -0.052,0.0433 -0.025,0.19835 0.033,0.21094 -0.011,-0.0758 0.3265,-0.17849 0.5253,-0.25781 -0.011,-0.0159 -0.023,-0.0305 -0.033,-0.0469 -0.03,-0.0507 -0.044,-0.11623 -0.051,-0.18555 z m 1.3398,0.0332 c -0.016,0.0408 -0.03,0.0812 -0.041,0.12304 0.01,0.007 0.011,0.01 0.02,0.0215 0.012,-0.0316 0.019,-0.0598 0.033,-0.10156 -0.01,-0.0186 -0.01,-0.029 -0.012,-0.043 z m -0.041,0.12304 c 0,0.0161 -0.01,0.0325 -0.012,0.0488 0.01,0.003 0.011,0.006 0.016,0.01 0,-0.009 0.01,-0.0208 0.014,-0.0332 0,-0.004 -0.025,-0.0333 -0.018,-0.0254 z m -361.00196,0.50196 c -0.17056,0.0106 -0.35921,0.0204 -0.62891,0.01 0.0222,0.006 0.0421,0.0197 0.0644,0.0254 0.19135,0.0491 0.38008,0.0215 0.56446,-0.0352 z m 363.58006,0.83203 c 0.01,0.0719 0.011,0.14387 0.024,0.21484 0,0.0426 0.014,-0.086 0.014,-0.1289 -0.012,-0.0288 -0.023,-0.0571 -0.035,-0.0859 z m 1.3555,1.6582 c 0.015,0.009 0.023,0.0169 0.037,0.0254 0,-0.007 -0.01,-0.0126 -0.012,-0.0195 0,0.007 -8e-4,0.013 -0.025,-0.006 z m 0.074,0.082 c 0.026,0.20346 0.045,0.40825 0.072,0.61133 0.1444,-0.26549 0.056,-0.40839 -0.072,-0.61133 z m -355.07226,0.59375 c -0.9725,1.15046 -1.87031,2.19794 -1.08203,1.71875 0.53221,-0.32353 0.8263,-1.01668 1.09961,-1.71289 -0.006,-0.002 -0.0117,-0.004 -0.0176,-0.006 z m 0.99414,0.35547 c -0.45022,0.7472 -0.62859,1.29381 -0.73242,1.62891 0.22948,-0.44491 0.61336,-1.00677 0.96679,-1.54492 -0.0766,-0.0297 -0.15728,-0.0544 -0.23437,-0.084 z m 352.47852,0.28125 c 0,0.002 0.01,0.003 0.01,0.006 0,0.002 4e-4,0.001 -0.01,-0.002 0.013,0.0206 0.01,0.0101 0.025,0.0371 0.01,0.0149 -0.022,-0.0231 -0.035,-0.0391 0,-0.003 -10e-4,-8.9e-4 0.01,0.002 z m 3.2129,0 c 0.03,0.0266 0.061,0.0525 0.092,0.0781 0.028,0.0233 -0.05,-0.0565 -0.082,-0.0742 0,-0.002 -0.01,-0.002 -0.01,-0.004 z m -2.1758,0.94336 c -0.089,0.35038 -0.077,0.23322 0.068,0.42188 -0.022,-0.14108 -0.041,-0.28203 -0.068,-0.42188 z m 2.5488,2.04492 c 0,0.0163 -2e-4,0.0336 0.01,0.0488 0.01,0.0169 0.056,0.0499 0.043,0.0332 -0.013,-0.03 -0.033,-0.0553 -0.053,-0.082 z m -1.334,0.0176 c 0,0.003 -10e-4,0.006 0.01,0.01 0.011,0.0184 0.074,0.0465 0.057,0.0332 -0.068,-0.051 -0.044,-0.0336 -0.059,-0.043 z m 0.1192,0.49414 c -0.03,-0.0724 -0.01,0.10904 0.029,0.29688 0.029,0.0373 0.059,0.0734 0.092,0.10742 -0.035,-0.13691 -0.067,-0.27411 -0.1211,-0.4043 z m 0.1211,0.4082 c 0.019,0.0745 0.046,0.14657 0.07,0.21875 0.012,-0.0225 0.023,-0.0536 0.033,-0.11328 -0.033,-0.0366 -0.069,-0.0702 -0.1035,-0.10547 z m -347.33596,0.31836 c -0.0369,-0.0386 0.0378,0.10018 0.0703,0.14258 0.12692,0.1658 0.25006,0.33996 0.40625,0.47852 0.0658,0.0584 0.14616,0.0983 0.22265,0.14258 -0.23195,-0.25563 -0.46076,-0.51413 -0.69922,-0.76368 z m 349.17776,0.0527 c 0.01,0.0312 0.01,0.0309 0.02,0.0742 0,0.005 0.011,-0.002 0.016,-0.008 -0.012,-0.0227 -0.014,-0.0376 -0.029,-0.0664 z m -0.8711,1.17187 c -0.01,-0.0193 -6e-4,0.0287 0.012,0.0625 0.01,0.008 0.01,0.0109 0.019,0.0215 -0.011,-0.0278 -0.013,-0.0566 -0.025,-0.084 z m 0,0.0547 c 4e-4,0.005 0,0.009 0.01,0.0137 v -0.006 c 0,-0.003 6e-4,-0.005 -0.01,-0.008 z m 0.01,0.0156 v 0.004 h 0.01 c 0,-0.003 -0.01,-0.003 -0.01,-0.004 z m 0,0.004 v 0.0234 c 0,0.01 0.01,0.0172 0.014,0.0273 0.013,0.0223 0.027,0.0443 0.041,0.0664 -0.012,-0.0334 -0.024,-0.0666 -0.037,-0.0996 -0.01,-0.007 -0.01,-0.009 -0.018,-0.0176 z m 0.022,0.0137 c -10e-5,10e-4 0,0.002 0,0.004 0.013,0.008 0.033,0.0278 0.025,0.0195 -0.014,-0.0156 -0.017,-0.0149 -0.025,-0.0234 z m 1.3926,2.23438 c -0.021,0.19693 -0.021,0.19726 0.025,0.26758 -0.01,-0.0847 -0.015,-0.12611 -0.025,-0.26758 z m 1.4434,1.67187 c -0.024,-0.0228 -0.1094,0.59067 -0.1094,0.81641 0,0.003 0.014,0.005 0.014,0.008 0.01,-0.25862 0.1093,-0.51154 0.1093,-0.77148 -5e-4,-0.0323 0,-0.0495 -0.014,-0.0527 z m 1.1191,0.15625 c -0.013,-0.0231 0.018,0.0364 0.041,0.0664 -0.011,-0.0186 -0.013,-0.0182 -0.039,-0.0664 z m 0.041,0.0664 c 0.013,0.0228 0.033,0.0603 0.047,0.082 10e-5,-10e-4 0,-0.003 0,-0.004 -4e-4,-0.0326 -0.02,-0.0431 -0.047,-0.0781 z m 0.02,0.28711 c -0.046,0.17967 -0.1174,0.35658 -0.1289,0.54102 -0.013,0.20796 0.079,-0.22757 0.1289,-0.54102 z m -339.0137,0.30469 c -0.3499,0.20949 -0.5956,0.59503 -0.8945,0.875 0.019,-0.0145 0.044,-0.0101 0.062,-0.0293 0.2769,-0.28157 1.1709,-1.04858 0.832,-0.8457 z m 338.0293,0.77343 c 0,0.0569 -0.011,0.11873 0.019,0.16993 0.013,0.0251 0.037,0.0492 0.061,0.0723 -0.025,-0.0789 -0.022,-0.12153 -0.061,-0.24219 z m 9.9277,1.97071 c 0.023,0.024 0.044,0.0468 0.08,0.084 0.029,0.0291 -0.037,-0.0512 -0.08,-0.084 z m 0.096,0.004 c 0.018,0.003 0.043,0.009 0.055,0.0117 0,0.005 0.028,0.0201 0.018,0.0176 -0.026,-0.009 -0.046,-0.0186 -0.072,-0.0293 z m 2.1992,1.02149 c 0.025,0.0103 0.047,0.021 0.07,0.0332 -0.012,-0.008 -0.045,-0.0305 -0.07,-0.0332 z m -8.832,3.96094 c -0.088,-0.003 -0.156,0.0231 -0.2305,0.043 10e-5,0.007 0,0.0143 0,0.0215 0.088,-0.0133 0.1804,-0.0245 0.2657,-0.0488 0.029,-0.009 0.021,-0.014 -0.025,-0.0156 z m 0.047,1.07617 c 0,-6.7e-4 -0.012,-4.4e-4 -0.016,0.006 -0.042,0.13487 -0.047,0.19022 -0.065,0.27148 0.017,-0.003 0.053,-0.008 0.062,-0.01 0.01,-0.0204 0.013,-0.0276 0.018,-0.0508 0.013,-0.0514 0.011,-0.1827 0,-0.21679 z m -0.8978,4.1209 c -0.018,0.0248 -0.1001,0.21855 -0.1348,0.35742 0.028,-0.0641 0.073,-0.13675 0.1348,-0.34375 0.01,-0.0137 0,-0.0127 0,-0.0137 z m -0.1426,0.39844 c -0.013,0.0695 -0.01,0.11274 0.039,0.084 0.11,0.14271 0.03,0.0439 -0.039,-0.084 z m -284.1777,1.64258 c -0.1925,-0.11264 0.1954,0.43025 0.3867,0.54492 0.2063,0.1236 0.4445,0.1864 0.6797,0.2539 -0.3419,-0.28671 -0.6832,-0.57462 -1.0664,-0.79882 z m 10.248,1.96289 c -0.021,-0.0177 0.372,0.65707 0.461,0.92578 0.01,0.0238 -0.033,0.005 -0.074,-0.0176 0.044,0.027 0.084,0.0512 0.1191,0.0703 -0.032,-0.12779 -0.1096,-0.36473 -0.4707,-0.92578 -0.022,-0.034 -0.032,-0.0502 -0.035,-0.0527 z m 0.5996,1.02734 c 0.2048,0.0892 0.296,0.0244 0.8536,0.0312 -0.324,-1.6e-4 -0.6004,-0.009 -0.8536,-0.0312 z m 2.1954,0.32422 c -0.7699,0.34651 -0.035,0.64286 0.7304,0.8457 -0.052,-0.0367 -0.1025,-0.0716 -0.1562,-0.11133 -0.1387,-0.10259 -0.2269,-0.25359 -0.3086,-0.41015 -0.09,-0.10665 -0.1787,-0.21464 -0.2656,-0.32422 z m 9.0175,1.08984 c -0.1181,-0.0901 0.2048,0.21609 0.3067,0.32422 0.017,-6.7e-4 0.034,-0.005 0.051,-0.006 -0.117,-0.10866 -0.2313,-0.22216 -0.3575,-0.31836 z m -5.8027,0.0703 c -0.037,-2.5e-4 -0.074,0.002 -0.1113,0.004 -0.01,0.0226 -0.01,0.0436 -0.016,0.0664 0,0.0172 0,0.0333 0,0.0488 0.2245,-0.066 0.4968,-0.0824 0.3555,-0.10352 -0.076,-0.0113 -0.1521,-0.0151 -0.2285,-0.0156 z m 17.248,0.61718 c 0.079,0.54269 -0.084,0.85088 -0.4472,1.01172 9e-4,10e-4 10e-4,0.003 0,0.004 0.2957,0.37921 0.9721,-0.41184 1.1621,-0.85352 0.013,-0.0297 0.021,-0.0635 0.033,-0.0937 -0.023,-0.0234 -0.055,-0.0325 -0.078,-0.0566 -0.2232,-0.006 -0.4467,-0.007 -0.67,-0.0117 z m 188.4317,3.93946 c -0.1601,0.004 -0.451,0.006 -0.6133,0.01 0.2131,0.0869 0.4889,0.15255 0.8633,0.20508 -0.086,-0.0687 -0.1666,-0.14338 -0.25,-0.21484 z m -44.6035,0.62109 c -0.1965,0.42233 -0.3865,0.84702 -0.5274,1.28516 -0.023,0.0719 0.1673,0.19322 0.1895,0.12109 0.1632,-0.53148 0.2812,-0.99177 0.3711,-1.40625 -0.017,10e-5 -0.017,-1e-4 -0.033,0 z m 24.4843,0.10938 c -0.011,-10e-4 0.1727,0.18664 0.2364,0.25781 0.036,0.0124 0.033,0.0116 0.068,0.0234 -0.092,-0.0937 -0.1872,-0.18367 -0.2871,-0.26758 -0.01,-0.009 -0.016,-0.0135 -0.018,-0.0137 z m -123.6191,0.14062 c 0.089,0.10594 0.2433,0.28163 0.4102,0.34375 0.084,0.0313 0.1765,0.0298 0.2656,0.041 -0.1588,-0.10653 -0.3779,-0.24104 -0.6192,-0.38477 -0.019,-6e-5 -0.038,6e-5 -0.057,0 z m 116.6719,0.10938 c -0.2851,0.15865 -0.5218,0.29557 -0.7051,0.40625 0.068,0.0126 0.1344,0.0189 0.1719,0 0.1403,-0.0708 0.3419,-0.23879 0.5332,-0.40625 z m -4.6133,0.65429 c -0.061,0.004 0.8323,0.16675 1.0645,0.16797 -0.5861,-0.0965 -1.0367,-0.16966 -1.0645,-0.16797 z m -125.9395,0.29688 c -0.028,-0.0137 0.034,0.0584 0.064,0.0664 0.031,0.008 0.049,0.01 0.096,0.0195 -0.069,-0.0353 -0.066,-0.0399 -0.1602,-0.0859 z"/>
    <path d="m 1297,4856 c -120,-36 -143,-59 -199,-207 l -47,-124 v -525 l -1,-525 26,-70 c 14,-38 36,-102 49,-141 12,-38 40,-95 61,-125 45,-63 210,-227 268,-266 23,-15 55,-39 71,-54 17,-16 56,-39 87,-53 32,-14 76,-37 97,-50 22,-14 81,-37 133,-51 51,-15 123,-40 161,-55 44,-19 107,-35 180,-45 61,-8 146,-26 187,-40 112,-36 301,-63 525,-75 110,-6 252,-15 315,-20 201,-15 871,-12 990,4 58,8 191,20 295,25 207,12 311,27 432,65 43,14 116,30 161,35 47,6 108,22 140,36 32,14 88,34 127,45 38,11 94,35 125,54 30,19 77,46 104,60 27,14 55,35 63,46 7,10 31,29 54,42 56,31 233,237 255,296 9,26 30,77 46,115 46,107 51,211 41,858 l -8,565 -40,58 c -97,140 -99,141 -660,141 -424,0 -431,0 -501,-23 -109,-36 -135,-63 -173,-176 l -31,-95 v -483 c 0,-530 -2,-547 -60,-657 -49,-92 -254,-236 -324,-229 -24,2 -35,11 -48,38 -16,31 -18,75 -19,425 0,215 -4,498 -8,630 -7,218 -10,244 -29,282 -12,23 -26,45 -32,48 -6,4 -22,24 -35,45 -21,33 -35,42 -107,67 l -83,28 h -335 -335 l -83,-34 c -99,-40 -123,-67 -174,-199 l -33,-87 -5,-581 c -5,-564 -6,-583 -25,-604 -51,-56 -198,23 -312,168 -104,133 -97,89 -103,637 -6,468 -6,482 -29,545 -35,100 -78,174 -113,194 -17,10 -69,29 -117,42 -84,23 -96,24 -466,23 -367,0 -383,-1 -458,-23 z m 874,-239 c 64,-43 63,-37 70,-527 l 6,-445 31,-114 c 21,-77 40,-125 59,-150 16,-20 39,-52 51,-72 40,-66 256,-243 316,-260 22,-6 74,-29 116,-51 69,-36 87,-41 166,-45 82,-5 92,-3 124,19 22,15 37,35 41,53 4,17 7,332 8,701 1,732 1,726 58,786 l 27,28 h 311 c 317,0 365,-5 382,-38 4,-9 10,-354 13,-765 l 5,-749 28,-24 c 23,-20 39,-24 91,-24 105,0 227,26 303,65 37,19 73,35 80,35 6,0 51,29 100,66 110,81 215,197 232,256 7,24 27,68 44,98 l 32,55 5,539 5,539 28,21 c 28,21 37,21 446,21 385,0 419,-1 444,-18 16,-10 32,-30 38,-44 6,-17 9,-219 7,-557 l -3,-531 -42,-90 c -23,-49 -51,-115 -62,-145 -14,-37 -37,-71 -68,-102 -68,-66 -175,-144 -247,-180 -33,-17 -71,-39 -83,-48 -13,-10 -56,-26 -95,-35 -40,-9 -112,-35 -160,-56 -64,-30 -109,-42 -175,-50 -129,-16 -238,-36 -323,-60 -114,-31 -445,-42 -1130,-36 -618,5 -656,8 -820,57 -36,11 -137,26 -225,34 -147,13 -167,17 -243,51 -46,20 -127,46 -180,57 -53,11 -116,31 -138,44 -23,13 -68,33 -100,45 -33,12 -84,41 -114,64 -30,24 -68,50 -85,58 -31,15 -180,171 -202,210 -7,12 -22,60 -35,107 -22,82 -23,101 -26,574 -2,416 0,497 13,540 34,115 34,115 481,116 360,0 361,0 395,-23 z" id="path6"/>
    <path d="m 16759,4855 c -3,-2 -90,-11 -195,-20 -177,-14 -338,-42 -454,-80 -25,-8 -87,-21 -138,-29 -60,-10 -121,-28 -173,-51 -44,-20 -112,-45 -151,-56 -39,-11 -89,-31 -112,-44 -23,-13 -61,-31 -86,-41 -25,-9 -61,-29 -80,-43 -19,-15 -62,-44 -95,-64 -119,-72 -313,-258 -389,-374 -14,-21 -46,-94 -72,-163 -37,-101 -47,-142 -51,-210 -5,-81 -3,-91 42,-225 36,-104 61,-160 101,-220 65,-98 166,-210 225,-250 24,-16 67,-46 94,-66 71,-53 192,-121 250,-144 27,-10 75,-35 107,-56 34,-22 91,-46 140,-59 46,-12 110,-33 143,-46 33,-14 105,-31 160,-40 55,-8 138,-25 185,-39 226,-65 446,-81 901,-66 674,22 839,11 855,-55 9,-37 -57,-116 -151,-180 -80,-54 -129,-73 -350,-134 -104,-29 -311,-45 -570,-44 -257,0 -425,19 -497,55 -24,11 -67,29 -96,39 -38,14 -79,43 -147,104 -52,47 -107,89 -122,93 -15,5 -228,8 -473,8 -499,0 -460,5 -553,-77 -62,-54 -82,-119 -65,-203 9,-45 20,-63 67,-112 80,-81 170,-157 211,-178 19,-9 49,-28 66,-40 56,-42 252,-145 321,-169 37,-13 102,-40 144,-60 46,-21 111,-42 164,-51 49,-8 131,-29 184,-46 82,-26 120,-32 271,-41 106,-6 205,-17 251,-29 67,-17 102,-18 325,-14 155,3 277,11 324,20 41,8 155,19 253,25 137,8 196,16 260,36 45,13 116,31 157,39 41,9 98,20 126,25 27,6 79,24 114,41 36,17 93,37 127,45 35,8 97,32 138,54 42,22 83,40 91,40 8,0 33,9 54,20 59,30 210,129 210,138 0,4 17,18 38,32 57,38 130,109 154,149 11,20 31,47 44,61 12,14 47,79 78,145 44,97 57,136 65,205 16,128 13,206 -13,308 -29,111 -74,180 -169,259 -24,19 -25,24 -16,51 6,17 42,66 79,109 81,91 107,135 157,269 37,97 37,101 38,244 v 145 l -54,130 c -29,72 -72,157 -95,190 -53,76 -178,202 -236,237 -25,15 -66,42 -92,60 -98,68 -164,108 -208,123 -24,8 -65,29 -90,44 -25,16 -74,37 -110,47 -36,9 -101,32 -145,50 -44,17 -119,39 -166,48 -47,9 -118,27 -157,40 -152,52 -573,96 -913,96 -124,0 -228,-2 -230,-5 z m 871,-268 c 47,-14 145,-35 219,-46 100,-16 162,-33 245,-65 61,-24 136,-49 167,-55 31,-7 78,-25 104,-42 26,-16 69,-38 95,-48 108,-41 345,-214 420,-306 72,-90 67,-80 101,-197 39,-134 38,-205 -1,-334 -37,-119 -41,-126 -144,-228 -110,-109 -186,-170 -237,-186 -22,-8 -62,-33 -88,-56 -25,-23 -70,-52 -99,-64 -60,-26 -66,-49 -20,-83 22,-17 52,-21 179,-29 84,-5 167,-15 185,-23 54,-22 161,-113 180,-153 27,-54 26,-212 -1,-264 -11,-20 -37,-68 -57,-106 -64,-121 -183,-237 -323,-317 -27,-16 -60,-37 -71,-47 -12,-11 -49,-27 -83,-38 -34,-10 -77,-29 -94,-43 -49,-37 -88,-54 -160,-71 -37,-9 -89,-26 -115,-40 -47,-23 -108,-40 -192,-51 -111,-15 -299,-58 -345,-78 -49,-21 -57,-22 -540,-22 -476,0 -492,1 -550,22 -97,35 -222,64 -344,79 -88,11 -128,21 -170,43 -31,16 -89,36 -130,45 -40,9 -105,34 -145,56 -39,21 -96,48 -128,60 -31,11 -62,28 -69,36 -7,9 -36,27 -63,41 -59,29 -111,75 -133,117 -28,54 -17,56 343,56 202,0 333,-4 351,-11 15,-5 48,-29 73,-53 62,-58 103,-87 185,-129 39,-19 93,-47 121,-62 37,-19 77,-29 145,-36 52,-5 135,-17 184,-26 50,-8 178,-17 285,-20 178,-5 202,-4 271,16 44,12 104,21 145,21 141,0 313,36 372,79 15,10 54,24 86,32 32,7 73,22 90,34 18,12 60,37 94,55 72,38 188,165 224,246 28,64 32,232 6,279 -41,76 -99,104 -240,115 -60,5 -144,17 -185,26 -97,21 -401,15 -477,-10 -41,-13 -99,-16 -334,-16 -246,0 -297,3 -371,19 -135,31 -195,41 -352,61 -119,15 -164,26 -235,55 -49,20 -128,45 -177,56 -59,12 -102,28 -130,48 -23,16 -65,36 -94,46 -28,9 -69,30 -90,47 -21,17 -66,43 -101,59 -81,37 -125,71 -245,193 -75,77 -99,109 -108,140 -5,23 -21,79 -35,126 -31,110 -31,133 10,273 32,113 36,120 100,192 89,99 201,197 256,225 25,12 62,36 82,52 20,15 60,38 90,50 29,12 70,33 91,45 21,13 80,34 130,47 51,13 119,36 152,53 68,34 120,47 255,64 52,6 127,22 165,36 101,36 208,41 730,39 l 460,-3 z" id="path8"/>
    <path d="m 16855,4443 c -43,-6 -173,-40 -225,-58 -25,-9 -79,-23 -122,-31 -52,-10 -116,-34 -200,-75 -215,-105 -350,-211 -402,-318 -18,-36 -46,-88 -62,-116 -25,-44 -29,-61 -32,-153 -5,-124 6,-174 58,-256 22,-35 40,-68 40,-73 0,-25 66,-96 144,-154 174,-130 208,-152 264,-169 31,-10 82,-31 113,-48 46,-24 77,-31 175,-41 65,-7 149,-21 186,-32 94,-27 333,-27 410,0 29,10 109,24 178,30 114,10 131,14 200,50 41,21 94,42 116,46 28,4 61,22 102,55 33,26 70,54 83,61 54,28 131,94 163,139 19,27 60,96 90,154 l 56,106 v 113 c 0,102 -2,116 -25,157 -14,25 -39,74 -56,109 -17,35 -53,88 -81,117 -60,63 -234,190 -287,209 -21,7 -65,27 -97,44 -33,16 -102,39 -154,50 -52,11 -133,32 -178,46 -46,13 -111,29 -145,35 -60,10 -251,11 -312,3 z m 370,-273 c 44,-7 110,-16 147,-22 41,-6 99,-25 145,-47 43,-21 95,-43 115,-50 49,-16 206,-132 241,-178 15,-21 36,-66 47,-101 42,-135 16,-260 -73,-350 -65,-67 -167,-136 -249,-168 -35,-14 -83,-36 -108,-49 -98,-50 -140,-56 -410,-62 -362,-8 -424,0 -599,78 -239,107 -345,196 -395,331 -38,103 -35,145 22,253 36,69 58,97 92,122 25,18 65,48 90,67 25,18 77,46 115,61 39,15 88,38 110,51 71,40 197,62 435,74 145,7 153,7 275,-10 z" id="path10"/>
  </g>
  <text xml:space="preserve" transform="scale(0.75)" id="text765" style="fill:black;fill-opacity:1;line-height:1.25;stroke:none;font-family:sans-serif;font-style:normal;font-weight:normal;font-size:40px;white-space:pre;shape-inside:url(#rect767)"/>
  <path style="fill:#7eb4c1;fill-opacity:1;stroke:none;stroke-width:1.05357" d="m 235.54878,447.34185 c -33.23195,-0.93495 -38.989,-1.63563 -54.03394,-6.57638 -4.81404,-1.58093 -16.32447,-3.9537 -25.57873,-5.27283 -16.33177,-2.32795 -20.83168,-3.5989 -29.64104,-8.37168 -2.31435,-1.2539 -9.56939,-4.12983 -16.12231,-6.39094 C 86.514291,412.56654 64.521723,397.05364 50.747789,378.81345 40.679391,365.48031 39.143248,362.50499 36.260823,350.75381 l -2.612456,-10.65053 -0.02619,-72.25352 c -0.02609,-72.06352 -0.02083,-72.26842 2.043664,-77.91983 3.582268,-9.80655 2.967131,-9.68023 49.00405,-10.06406 36.669479,-0.30572 40.083129,-0.16481 43.041649,1.77673 7.76447,5.09551 8.09627,8.13746 8.95048,82.06147 l 0.60906,52.70953 2.86104,12.98379 c 3.52466,15.99531 3.8707,17.01368 9.2784,27.30458 6.91369,13.15678 29.32968,38.28343 37.0862,41.57083 0.94969,0.4025 6.32365,3.42734 11.94213,6.72186 9.72579,5.70294 10.67186,6.0157 19.73826,6.52534 10.61833,0.5969 14.12204,-0.74032 17.12858,-6.53728 1.52464,-2.93965 1.69683,-10.27539 2.28621,-97.39915 0.35058,-51.82105 1.01474,-96.35215 1.47592,-98.95802 1.08025,-6.10397 2.22971,-8.69412 5.72266,-12.89542 l 2.84301,-3.41954 33.55166,0.58264 c 27.41347,0.47607 34.17479,0.91763 36.95776,2.41365 l 3.40612,1.83098 0.55949,28.84128 c 0.30771,15.86272 0.79488,62.95444 1.08259,104.64828 l 0.52312,75.80696 2.78887,3.25734 c 2.96123,3.45863 4.70015,3.82528 15.87922,3.34806 14.41049,-0.61521 32.6166,-8.98725 46.26046,-21.27282 7.63418,-6.87418 22.75499,-25.90817 24.62167,-30.99363 0.58604,-1.59654 3.17634,-8.49947 5.75623,-15.33987 l 4.69071,-12.43709 0.58271,-73.43799 0.58273,-73.43801 2.27246,-2.5462 c 3.22028,-3.60816 13.98005,-4.31412 57.91425,-3.79974 34.99139,0.40966 36.26128,0.50473 38.82037,2.90666 5.08899,4.77645 4.95981,2.66381 4.97467,81.35287 l 0.0138,73.17566 -2.66527,6.77703 c -1.46587,3.72734 -4.68603,12.77468 -7.15587,20.1052 -3.56242,10.57327 -5.47549,14.59279 -9.25521,19.44609 -11.31823,14.533 -32.33841,30.84806 -47.82426,37.11941 -5.21178,2.11062 -13.37181,5.77566 -18.13336,8.14454 -6.38659,3.17731 -12.1631,4.95155 -22.02271,6.76427 -7.35091,1.35146 -18.6548,3.99677 -25.11976,5.87842 -6.46494,1.88162 -17.21858,3.9641 -23.89696,4.62768 -16.47617,1.63711 -97.53551,2.38692 -137.25019,1.26959 z" id="path6162"/>
  <path style="fill:#7eb4c1;fill-opacity:1;stroke-width:1.05357" d="m 811.88746,448.27634 c -18.63071,-4.17749 -28.79686,-6.08037 -36.54832,-6.84098 -1.80397,-0.17701 -4.46715,-0.92891 -5.9181,-1.67088 -1.45096,-0.74196 -3.39745,-1.34902 -4.32546,-1.34902 -3.00311,0 -22.83482,-5.99165 -29.65516,-8.95957 -3.64674,-1.5869 -8.0747,-2.88855 -9.83989,-2.89258 -1.76528,-0.002 -4.33478,-0.74933 -5.71006,-1.65624 -1.37536,-0.90693 -4.19757,-2.01136 -6.27178,-2.45428 -2.07413,-0.44291 -4.26879,-1.56315 -4.87699,-2.48943 -0.60821,-0.92628 -1.51482,-1.68414 -2.0147,-1.68414 -0.49987,0 -1.9811,-1.06602 -3.29161,-2.36896 -1.31051,-1.30293 -3.18254,-2.36896 -4.16005,-2.36896 -0.97751,0 -2.02935,-0.83017 -2.33738,-1.84481 -0.30806,-1.01465 -1.1419,-1.56261 -1.85301,-1.21769 -1.5446,0.74915 -6.04289,-1.20449 -7.38961,-3.20939 -0.5273,-0.785 -1.79243,-2.08455 -2.81141,-2.88788 -1.01897,-0.80336 -6.06979,-4.77787 -11.22404,-8.83224 -6.64662,-5.22828 -11.90897,-10.65825 -18.09909,-18.6756 -11.45502,-14.8363 -13.3747,-18.73069 -17.07837,-34.64627 l -3.11288,-13.37674 -0.0661,-132.6622 c -0.0616,-123.67501 0.0469,-133.183786 1.6019,-140.361351 2.67409,-12.342781 5.29948,-18.024825 9.5776,-20.728476 3.50438,-2.214662 5.97656,-2.394736 37.95401,-2.764549 41.37962,-0.478552 45.30297,-0.0971 48.88768,4.753173 1.43411,1.940396 3.10947,5.484859 3.72315,7.876593 0.81961,3.194411 1.27359,38.7732 1.71031,134.04959 l 0.59461,129.70099 3.55723,18.03703 c 4.45431,22.58508 8.9847,32.94643 21.95582,50.2143 15.51044,20.6484 24.13958,27.20083 51.05048,38.76435 11.39254,4.89533 19.08853,7.47996 24.75948,8.31517 4.52573,0.66656 30.79016,1.55692 58.36538,1.9786 54.72583,0.83685 60.8854,1.35622 64.30993,5.42258 5.12076,6.08043 1.81835,12.26305 -7.52961,14.09646 -8.01102,1.57121 -3.80215,1.46638 -76.92873,1.91611 -33.50266,0.20605 -61.75726,0.59242 -62.78811,0.85861 -1.03084,0.26619 -2.92857,0.2476 -4.21713,-0.0414 z" id="path6688"/>
  <path style="fill:#7eb4c1;fill-opacity:1;stroke-width:1.05357" d="m 1167.9992,447.08681 c -14.3967,-0.58252 -28.411,-2.81519 -39.3598,-6.27043 -5.9273,-1.87061 -14.7832,-3.75793 -19.6798,-4.19407 -14.3415,-1.27742 -23.6338,-3.62504 -32.4787,-8.20538 -4.5577,-2.3602 -13.3473,-5.89681 -19.5324,-7.85909 -6.185,-1.96229 -13.3542,-4.84497 -15.9312,-6.40591 -2.5772,-1.56097 -7.5443,-4.45351 -11.038,-6.42786 -8.6144,-4.8681 -23.273,-17.95739 -30.57118,-27.29842 -10.96351,-14.03231 -12.61787,-17.39928 -16.1153,-32.79582 l -3.18944,-14.04121 v -62.77765 c 0,-65.99666 0.48123,-75.4567 4.23499,-83.25849 3.84159,-7.98438 3.61081,-7.94561 47.30753,-7.94622 42.2271,-6e-4 44.0275,0.22422 48.3483,6.03728 2.2042,2.96554 2.2445,3.4527 2.8663,34.61179 0.3469,17.38214 0.668,46.28408 0.7136,64.22652 l 0.083,32.62264 4.0793,15.34897 c 6.3757,23.99016 13.5563,36.49923 31.5231,54.91502 5.5214,5.65939 9.8219,8.6894 20.1484,14.19595 15.6168,8.32758 17.7492,9.08846 30.2368,10.78866 5.286,0.71972 12.8767,2.44207 16.8684,3.82747 9.4112,3.26639 25.3908,3.54267 33.1624,0.57338 2.9083,-1.11119 10.7075,-2.82167 17.3316,-3.80104 13.4939,-1.99508 20.5008,-4.22617 25.5202,-8.12589 1.8715,-1.45412 6.144,-4.10532 9.4942,-5.89158 8.4298,-4.49455 21.3257,-16.8459 27.6517,-26.48412 3.476,-5.29603 7.3325,-13.44201 11.2294,-23.71998 l 5.9353,-15.65387 0.8908,-72.84459 c 0.9945,-81.32226 0.6702,-77.86159 7.4681,-79.68346 1.9368,-0.51904 23.2377,-0.83815 47.3356,-0.70915 l 43.8141,0.23454 2.3342,3.3189 2.3342,3.31891 -0.2287,76.99146 c -0.2556,86.06444 0.3167,78.40141 -7.3429,98.31215 -6.3398,16.47997 -12.0207,24.71305 -24.7484,35.86638 -15.6161,13.68457 -21.8414,17.90263 -33.7523,22.86976 -5.6782,2.36791 -13.3351,5.97576 -17.0155,8.01741 -4.0302,2.23569 -10.3604,4.44357 -15.9158,5.55118 -5.0735,1.01152 -17.8694,3.94956 -28.4356,6.529 -13.2914,3.24475 -23.8318,5.05093 -34.2055,5.86146 -13.2188,1.03281 -69.4177,1.26371 -91.3708,0.3754 z" id="path6844"/>
  <path style="fill:#7eb4c1;fill-opacity:1;stroke-width:1.05357" d="m 1696.0754,597.19216 c -6.6718,-0.53047 -12.9609,-1.71632 -15.4628,-2.91552 -6.6443,-3.18474 -21.8787,-7.61503 -34.9501,-10.16388 -7.6417,-1.49004 -14.6094,-3.67127 -19.2114,-6.014 -3.9716,-2.0218 -10.7136,-4.96426 -14.9821,-6.53877 -4.2686,-1.57453 -11.0161,-4.9303 -14.9942,-7.45723 -3.9781,-2.52699 -9.7633,-5.94588 -12.8557,-7.59755 -5.0689,-2.70716 -12.4304,-8.23627 -22.2315,-16.69743 -1.9189,-1.6565 -4.7769,-5.2591 -6.351,-8.00576 -4.9016,-8.55229 -4.6634,-8.62867 28.3803,-9.09893 15.5739,-0.22164 32.2528,-0.0353 37.0642,0.41419 8.6118,0.80444 8.8234,0.89814 13.5885,6.01633 9.279,9.9666 17.7195,16.99156 29.047,24.17553 l 11.4046,7.23288 19.2114,3.56411 c 15.8995,2.94974 23.3307,3.67758 43.1082,4.22225 20.313,0.55943 24.7402,0.36832 29.5198,-1.27424 3.0925,-1.0628 11.5267,-2.48247 18.7427,-3.15479 15.5431,-1.44821 25.1178,-3.74501 32.7997,-7.86803 3.0926,-1.65985 9.4516,-4.7319 14.1311,-6.82682 13.3362,-5.97024 24.9911,-15.29099 33.7323,-26.97666 9.6163,-12.85548 12.3551,-19.28492 13.7242,-32.2182 2.8364,-26.79386 -3.6261,-39.03947 -22.2279,-42.11939 -4.1234,-0.68271 -13.506,-2.35563 -20.8502,-3.7176 -11.3093,-2.09725 -16.2583,-2.3856 -32.3313,-1.88374 -12.393,0.38695 -21.6903,1.28956 -26.7951,2.60136 -6.7002,1.72175 -12.2573,1.93519 -38.8912,1.4937 -29.3318,-0.48619 -31.6954,-0.69016 -42.1595,-3.63802 -6.0969,-1.71764 -18.7483,-4.48973 -28.114,-6.16021 -13.9285,-2.48433 -19.5025,-4.09465 -30.617,-8.84542 -7.4738,-3.19449 -16.3297,-6.67642 -19.68,-7.73761 -6.3627,-2.01542 -26.8044,-14.0163 -33.2683,-19.53108 -2.0617,-1.759 -6.4897,-4.93894 -9.8398,-7.06657 -8.7581,-5.56191 -12.9867,-9.48896 -22.3684,-20.77322 -13.4272,-16.15018 -15.4661,-20.1405 -19.3819,-37.93056 -2.8957,-13.15538 -3.301,-16.501 -2.8613,-23.61786 0.556,-9.00017 4.041,-25.11046 7.2371,-33.45528 2.7736,-7.24215 22.1415,-31.54233 30.8187,-38.66722 3.8633,-3.17227 8.8026,-7.31837 10.9763,-9.21355 6.5725,-5.73073 28.3611,-18.41659 36.3448,-21.161 4.1234,-1.41741 11.3923,-4.66206 16.1531,-7.21034 6.742,-3.60877 12.2331,-5.40997 24.834,-8.14618 8.898,-1.93212 18.8579,-4.59122 22.1332,-5.90911 9.5878,-3.85794 23.8091,-4.73295 77.098,-4.7437 43.1053,-0.007 50.8366,0.25203 54.354,1.83288 5.4899,2.46743 16.7006,5.71719 30.163,8.74371 15.6116,3.50967 46.9842,16.95503 63.1877,27.0805 19.4613,12.16115 35.6831,26.82682 47.1489,42.62617 6.7575,9.31148 8.6667,13.67428 11.9957,27.41161 2.0687,8.53681 2.4518,12.3174 2.4086,23.77273 -0.046,12.13769 -0.3801,14.84243 -3.0708,24.82885 -3.6612,13.58916 -7.1791,19.75355 -19.3411,33.8909 -10.3848,12.07143 -16.0572,17.42897 -21.9518,20.73302 -2.2784,1.27705 -5.993,4.23851 -8.2548,6.58105 -2.2617,2.34251 -6.9342,6.20522 -10.3832,8.58382 -4.9884,3.44035 -6.3294,4.96077 -6.5576,7.43518 -0.216,2.34397 0.4173,3.74401 2.5698,5.68142 2.4026,2.16226 5.2785,2.83627 18.0924,4.24019 8.3797,0.91809 16.7844,1.99061 18.6771,2.38339 4.2444,0.88088 10.6307,5.90484 16.8451,13.25196 7.2238,8.54047 7.8282,10.57725 7.8249,26.37313 v 13.62156 l -5.0082,11.84484 c -10.1315,23.96214 -19.3565,35.90229 -40.9059,52.94588 -4.6388,3.66887 -11.1891,7.98072 -14.5562,9.58185 -3.3671,1.60113 -8.4745,4.81326 -11.3499,7.13806 -2.8753,2.32482 -8.1329,5.36646 -11.6836,6.7592 -8.3092,3.25927 -12.5198,5.07974 -20.1467,8.71052 -3.4068,1.62172 -12.4219,4.32506 -20.0338,6.00746 -14.6763,3.24374 -29.1275,7.56589 -36.0919,10.79456 -3.6521,1.69313 -10.1182,2.00192 -48.2624,2.30495 -24.225,0.19248 -49.106,-0.0524 -55.2911,-0.54427 z m 73.1315,-180.62438 c 2.5963,-0.9813 11.0761,-2.80082 18.844,-4.04342 12.2934,-1.96656 15.2029,-2.86974 22.4562,-6.97084 4.5833,-2.59137 10.5464,-5.6279 13.2516,-6.74787 2.7052,-1.11999 7.344,-4.2874 10.3084,-7.03875 2.9646,-2.75132 8.0909,-7.31517 11.392,-10.1419 12.2839,-10.5189 16.2157,-16.59979 26.3105,-40.69098 l 5.856,-13.97529 -0.3875,-15.6368 -0.3875,-15.6368 -5.9985,-14.80604 c -5.0701,-12.51402 -7.094,-16.18127 -13.0742,-23.68969 -9.6964,-12.17446 -22.8575,-23.59557 -35.3669,-30.69118 -9.4595,-5.36564 -22.7989,-10.35288 -52.7705,-19.72925 -3.3608,-1.05141 -11.0703,-1.62716 -22.157,-1.65466 -18.6479,-0.0463 -14.3288,-0.99569 -50.7388,11.15324 -13.2241,4.41248 -21.611,8.57698 -33.0006,16.38639 -21.0173,14.41073 -31.3751,26.52564 -39.6689,46.39769 -6.5622,15.72356 -7.4819,20.6811 -7.0471,37.99163 l 0.337,13.41781 6.0868,14.98336 c 5.1921,12.78115 7.0549,16.14465 12.6738,22.88449 8.4536,10.14002 28.1207,27.80332 33.9152,30.45961 2.4642,1.1296 8.0648,4.08883 12.4459,6.57608 6.5065,3.69382 10.1116,4.87003 19.68,6.42069 6.4428,1.04414 14.4552,2.70636 17.8055,3.69384 3.3503,0.98745 8.8324,2.25659 12.1828,2.82029 8.7462,1.47158 31.3746,0.41404 37.0518,-1.73165 z" id="path7000"/>
  <text xml:space="preserve" transform="scale(0.75)" id="text155459" style="fill:black;fill-opacity:1;line-height:1.25;stroke:none;font-family:sans-serif;font-style:normal;font-weight:normal;font-size:40px;white-space:pre;shape-inside:url(#rect155461)"/>
  <text xml:space="preserve" transform="scale(0.75)" id="text165847" style="line-height:1.25;font-family:sans-serif;font-size:40px;-inkscape-font-specification:'sans-serif, Normal';white-space:pre;shape-inside:url(#rect165849)"/>
  <text xml:space="preserve" transform="scale(0.75)" id="text174931" style="line-height:1.25;font-family:sans-serif;font-size:40px;-inkscape-font-specification:'sans-serif, Normal';white-space:pre;shape-inside:url(#rect174933)"/>
  <text xml:space="preserve" style="font-style:normal;font-variant:normal;font-weight:bold;font-stretch:normal;font-size:121.575px;line-height:1.25;font-family:sans-serif;-inkscape-font-specification:'sans-serif, Bold';font-variant-ligatures:normal;font-variant-caps:normal;font-variant-numeric:normal;font-variant-east-asian:normal;opacity:0.99;stroke-width:3.03937;fill:#7eb4c1;fill-opacity:1" x="6.5324564" y="500.77515" id="text179823" transform="scale(0.82173173,1.2169422)"><tspan sodipodi:role="line" id="tspan179821" style="font-style:normal;font-variant:normal;font-weight:bold;font-stretch:normal;font-size:121.575px;font-family:sans-serif;-inkscape-font-specification:'sans-serif, Bold';font-variant-ligatures:normal;font-variant-caps:normal;font-variant-numeric:normal;font-variant-east-asian:normal;stroke-width:3.03937;fill:#7eb4c1;fill-opacity:1" x="6.5324564" y="500.77515">waikato linux users group</tspan></text>
</svg>